<?xml version="1.0" encoding="UTF-8" standalone="no"?>
<svg
   xmlns:dc="http://purl.org/dc/elements/1.1/"
   xmlns:cc="http://creativecommons.org/ns#"
   xmlns:rdf="http://www.w3.org/1999/02/22-rdf-syntax-ns#"
   xmlns:svg="http://www.w3.org/2000/svg"
   xmlns="http://www.w3.org/2000/svg"
   xmlns:sodipodi="http://sodipodi.sourceforge.net/DTD/sodipodi-0.dtd"
   xmlns:inkscape="http://www.inkscape.org/namespaces/inkscape"
   id="svg2"
   height="50"
   width="50"
   version="1.0"
   viewBox="0 -410 51.333333 47.5"
   inkscape:version="0.48.3.1 r9886"
   sodipodi:docname="Alpha_symbol.svg">
  <metadata
     id="metadata11137">
    <rdf:RDF>
      <cc:Work
         rdf:about="">
        <dc:format>image/svg+xml</dc:format>
        <dc:type
           rdf:resource="http://purl.org/dc/dcmitype/StillImage" />
        <dc:title />
      </cc:Work>
    </rdf:RDF>
  </metadata>
  <defs
     id="defs11135" />
  <sodipodi:namedview
     pagecolor="#ffffff"
     bordercolor="#666666"
     borderopacity="1"
     objecttolerance="10"
     gridtolerance="10"
     guidetolerance="10"
     inkscape:pageopacity="0"
     inkscape:pageshadow="2"
     inkscape:window-width="1374"
     inkscape:window-height="820"
     id="namedview11133"
     showgrid="false"
     inkscape:zoom="4"
     inkscape:cx="-35.132442"
     inkscape:cy="32.578265"
     inkscape:window-x="0"
     inkscape:window-y="1"
     inkscape:window-maximized="0"
     inkscape:current-layer="svg2" />
  <text
     id="text2171"
     xml:space="preserve"
     font-size="12px"
     y="-2948.4116"
     x="-471.24011"
     style="font-size:12px;fill:#000000;font-family:Lello"><tspan
       id="tspan2173"
       y="-2948.4116"
       x="-471.24011" /></text>
  <path
     id="text2175"
     d="m 37.021619,-410.48921 8.978453,0 -5.438768,24.47792 c -1.05505,4.65256 -1.777755,7.50746 -2.168122,8.56472 1.408486,6.48557 3.450003,9.72809 6.129824,9.72809 3.165138,0 4.805739,-2.18527 4.911242,-6.55583 l 1.899085,0 c -0.105512,4.08854 -0.854589,7.39286 -2.241976,9.91297 -1.392661,2.52115 -3.212616,3.77801 -5.470419,3.77801 -1.862158,0 -3.254821,-0.75517 -4.167436,-2.27135 -0.91789,-1.51566 -1.904359,-4.61716 -2.959409,-9.30459 -3.661014,7.7187 -9.648408,11.57594 -17.956908,11.57594 -5.665605,0 -10.1759338,-2.20955 -13.5204338,-6.63293 C 1.6722513,-371.63961 0,-377.97523 0,-386.22253 c 0,-8.10631 1.8305072,-14.41552 5.4915238,-18.92705 3.661015,-4.51135 8.0658382,-6.76708 13.2039182,-6.76708 3.629365,0 6.6046,1.28651 8.925702,3.85937 2.326379,2.5729 4.383723,6.76705 6.177304,12.583 z m -4.647484,20.72472 c -1.656427,-5.67494 -3.502759,-10.10673 -5.544277,-13.29648 -2.041514,-3.18971 -4.489227,-4.78455 -7.343128,-4.78455 -6.441065,0 -9.6642384,7.54228 -9.6642384,22.62744 0,14.30989 3.0807384,21.46457 9.2422184,21.46457 5.354366,0 9.31607,-6.30868 11.885111,-18.92707 z"
     inkscape:connector-curvature="0"
     sodipodi:nodetypes="ccccscccsccssscsccccsssscc"
     style="fill:#ffffff;fill-opacity:1" />
</svg>
