<?xml version="1.0" encoding="UTF-8" standalone="no"?>
<svg
   xmlns:dc="http://purl.org/dc/elements/1.1/"
   xmlns:cc="http://creativecommons.org/ns#"
   xmlns:rdf="http://www.w3.org/1999/02/22-rdf-syntax-ns#"
   xmlns:svg="http://www.w3.org/2000/svg"
   xmlns="http://www.w3.org/2000/svg"
   xmlns:sodipodi="http://sodipodi.sourceforge.net/DTD/sodipodi-0.dtd"
   xmlns:inkscape="http://www.inkscape.org/namespaces/inkscape"
   id="svg2"
   height="50"
   width="50"
   version="1.0"
   viewBox="0 -410 51.333333 47.5"
   inkscape:version="0.48.1 r9760"
   sodipodi:docname="Alpha_symbol.svg">
  <metadata
     id="metadata11137">
    <rdf:RDF>
      <cc:Work
         rdf:about="">
        <dc:format>image/svg+xml</dc:format>
        <dc:type
           rdf:resource="http://purl.org/dc/dcmitype/StillImage" />
        <dc:title />
      </cc:Work>
    </rdf:RDF>
  </metadata>
  <defs
     id="defs11135" />
  <sodipodi:namedview
     pagecolor="#ffffff"
     bordercolor="#666666"
     borderopacity="1"
     objecttolerance="10"
     gridtolerance="10"
     guidetolerance="10"
     inkscape:pageopacity="0"
     inkscape:pageshadow="2"
     inkscape:window-width="640"
     inkscape:window-height="480"
     id="namedview11133"
     showgrid="false"
     inkscape:zoom="4"
     inkscape:cx="5.7425583"
     inkscape:cy="32.578265"
     inkscape:window-x="0"
     inkscape:window-y="0"
     inkscape:window-maximized="0"
     inkscape:current-layer="svg2" />
  <text
     id="text2171"
     xml:space="preserve"
     font-size="12px"
     y="-2948.4116"
     x="-471.24011"
     style="font-size:12px;fill:#000000;font-family:Lello"><tspan
       id="tspan2173"
       y="-2948.4116"
       x="-471.24011" /></text>
  <path
     id="text2175"
     d="m 36.801594,-410.0555 8.839331,0 -5.354494,24.0724 c -1.038702,4.57548 -1.750208,7.38308 -2.134527,8.42282 1.386662,6.37813 3.396545,9.56693 6.034842,9.56693 3.116094,0 4.731273,-2.14907 4.835142,-6.44722 l 1.869658,0 c -0.103877,4.0208 -0.841347,7.27038 -2.207236,9.74874 -1.371082,2.47938 -3.162836,3.71542 -5.385654,3.71542 -1.833304,0 -3.204387,-0.74266 -4.102861,-2.23372 -0.903668,-1.49055 -1.874851,-4.54067 -2.913553,-9.15044 -3.604286,7.59082 -9.498905,11.38416 -17.678663,11.38416 -5.577816,0 -10.0182563,-2.17294 -13.3109328,-6.52304 -3.2926765,-4.35007 -4.93901604,-10.58073 -4.93901604,-18.69139 0,-7.97202 1.80214324,-14.1767 5.40643194,-18.61349 3.6042871,-4.43661 7.9408569,-6.65497 12.9993219,-6.65497 3.573127,0 6.50226,1.2652 8.787397,3.79543 2.290331,2.53028 4.315796,6.65494 6.081585,12.37454 z m -4.575471,20.38138 c -1.63076,-5.58093 -3.448483,-9.93929 -5.458367,-13.0762 -2.009881,-3.13687 -4.419666,-4.70528 -7.229346,-4.70528 -6.341259,0 -9.514489,7.41732 -9.514489,22.25257 0,14.07281 3.033002,21.10896 9.099009,21.10896 5.271399,0 9.171716,-6.20416 11.700949,-18.6135 z"
     inkscape:connector-curvature="0"
     sodipodi:nodetypes="ccccscccsccssscsccccsssscc" />
</svg>
