<?xml version="1.0" encoding="UTF-8" standalone="no"?>
<!-- Created with Inkscape (http://www.inkscape.org/) -->
<svg
   xmlns:dc="http://purl.org/dc/elements/1.1/"
   xmlns:cc="http://creativecommons.org/ns#"
   xmlns:rdf="http://www.w3.org/1999/02/22-rdf-syntax-ns#"
   xmlns:svg="http://www.w3.org/2000/svg"
   xmlns="http://www.w3.org/2000/svg"
   xmlns:sodipodi="http://sodipodi.sourceforge.net/DTD/sodipodi-0.dtd"
   xmlns:inkscape="http://www.inkscape.org/namespaces/inkscape"
   id="svg5445"
   sodipodi:version="0.32"
   inkscape:version="0.46"
   width="472"
   height="832"
   version="1.0"
   sodipodi:docname="antichthon_noflow.svg"
   inkscape:output_extension="org.inkscape.output.svg.inkscape">
  <metadata
     id="metadata5450">
    <rdf:RDF>
      <cc:Work
         rdf:about="">
        <dc:format>image/svg+xml</dc:format>
        <dc:type
           rdf:resource="http://purl.org/dc/dcmitype/StillImage" />
      </cc:Work>
    </rdf:RDF>
  </metadata>
  <defs
     id="defs5448">
    <inkscape:perspective
       sodipodi:type="inkscape:persp3d"
       inkscape:vp_x="0 : 526.18109 : 1"
       inkscape:vp_y="0 : 1000 : 0"
       inkscape:vp_z="744.09448 : 526.18109 : 1"
       inkscape:persp3d-origin="372.04724 : 350.78739 : 1"
       id="perspective5452" />
  </defs>
  <sodipodi:namedview
     inkscape:window-height="779"
     inkscape:window-width="1250"
     inkscape:pageshadow="2"
     inkscape:pageopacity="0.0"
     guidetolerance="10.0"
     gridtolerance="10.0"
     objecttolerance="10.0"
     borderopacity="1.0"
     bordercolor="#666666"
     pagecolor="#ffffff"
     id="base"
     showgrid="false"
     inkscape:zoom="0.71033654"
     inkscape:cx="42.539191"
     inkscape:cy="434.42001"
     inkscape:window-x="0"
     inkscape:window-y="21"
     inkscape:current-layer="layer9" />
  <g
     inkscape:groupmode="layer"
     id="layer7"
     inkscape:label="fg"
     style="display:inline">
    <path
       sodipodi:type="arc"
       style="fill:none;fill-opacity:1;fill-rule:nonzero;stroke:#000000;stroke-width:2;stroke-linecap:butt;stroke-linejoin:miter;marker:none;marker-start:none;marker-mid:none;marker-end:none;stroke-miterlimit:4;stroke-dasharray:none;stroke-dashoffset:0;stroke-opacity:1;visibility:visible;display:inline;overflow:visible;enable-background:accumulate"
       id="path6258"
       sodipodi:cx="259.66379"
       sodipodi:cy="219.64183"
       sodipodi:rx="205.11571"
       sodipodi:ry="205.11571"
       d="M 464.7795,219.64183 A 205.11571,205.11571 0 1 1 54.54808,219.64183 A 205.11571,205.11571 0 1 1 464.7795,219.64183 z"
       transform="matrix(0.936557,0,0,0.936557,-10.716582,422.35985)" />
    <path
       sodipodi:type="arc"
       style="fill:none;fill-opacity:1;fill-rule:nonzero;stroke:#000000;stroke-width:3.8749299;stroke-linecap:butt;stroke-linejoin:miter;marker:none;marker-start:none;marker-mid:none;marker-end:none;stroke-miterlimit:4;stroke-dasharray:none;stroke-dashoffset:0;stroke-opacity:1;visibility:visible;display:inline;overflow:visible;enable-background:accumulate"
       id="path6260"
       sodipodi:cx="259.66379"
       sodipodi:cy="219.64183"
       sodipodi:rx="205.11571"
       sodipodi:ry="205.11571"
       d="M 464.7795,219.64183 A 205.11571,205.11571 0 1 1 54.54808,219.64183 A 205.11571,205.11571 0 1 1 464.7795,219.64183 z"
       transform="matrix(0.483393,0,0,0.483393,106.95371,521.89362)" />
    <path
       sodipodi:type="arc"
       style="fill:none;fill-opacity:1;fill-rule:nonzero;stroke:#000000;stroke-width:7.56057358;stroke-linecap:butt;stroke-linejoin:miter;marker:none;marker-start:none;marker-mid:none;marker-end:none;stroke-miterlimit:4;stroke-dasharray:none;stroke-dashoffset:0;stroke-opacity:1;visibility:visible;display:inline;overflow:visible;enable-background:accumulate"
       id="path6262"
       sodipodi:cx="259.66379"
       sodipodi:cy="219.64183"
       sodipodi:rx="205.11571"
       sodipodi:ry="205.11571"
       d="M 464.7795,219.64183 A 205.11571,205.11571 0 1 1 54.54808,219.64183 A 205.11571,205.11571 0 1 1 464.7795,219.64183 z"
       transform="matrix(0.2477476,0,0,0.2477476,168.14228,573.65121)" />
    <path
       style="fill:none;fill-opacity:1;fill-rule:nonzero;stroke:#000000;stroke-width:1.87311399000000001;stroke-linecap:butt;stroke-linejoin:miter;marker:none;marker-start:none;marker-mid:none;marker-end:none;stroke-miterlimit:4;stroke-dasharray:none;stroke-dashoffset:0;stroke-opacity:1;visibility:visible;display:inline;overflow:visible;enable-background:accumulate"
       d="M 232.47335,605.64993 L 232.47335,650.48396"
       id="path6266" />
    <path
       style="fill:none;fill-opacity:1;fill-rule:nonzero;stroke:#000000;stroke-width:1.87311399000000001;stroke-linecap:butt;stroke-linejoin:miter;marker:none;marker-start:none;marker-mid:none;marker-end:none;stroke-miterlimit:4;stroke-dasharray:none;stroke-dashoffset:0;stroke-opacity:1;visibility:visible;display:inline;overflow:visible;enable-background:accumulate"
       d="M 254.89037,628.06695 L 210.05634,628.06695"
       id="path6268" />
    <path
       style="fill:none;fill-opacity:1;fill-rule:nonzero;stroke:#000000;stroke-width:1.87311399000000001;stroke-linecap:butt;stroke-linejoin:miter;marker:none;marker-start:none;marker-mid:none;marker-end:none;stroke-miterlimit:4;stroke-dasharray:none;stroke-dashoffset:0;stroke-opacity:1;visibility:visible;display:inline;overflow:visible;enable-background:accumulate"
       d="M 234.47335,630.06694 L 248.32457,643.91817 M 216.62213,612.21572 L 230.47335,626.06694"
       id="path6270"
       sodipodi:nodetypes="cccc" />
    <path
       style="fill:none;fill-opacity:1;fill-rule:nonzero;stroke:#000000;stroke-width:1.87311399000000001;stroke-linecap:butt;stroke-linejoin:miter;marker:none;marker-start:none;marker-mid:none;marker-end:none;stroke-miterlimit:4;stroke-dasharray:none;stroke-dashoffset:0;stroke-opacity:1;visibility:visible;display:inline;overflow:visible;enable-background:accumulate"
       d="M 230.47335,630.06695 L 216.62212,643.91817 M 248.32457,612.21573 L 234.47335,626.06695"
       id="path6272"
       sodipodi:nodetypes="cccc" />
    <path
       style="fill:none;fill-opacity:1;fill-rule:nonzero;stroke:#000000;stroke-width:1.87311399000000001;stroke-linecap:butt;stroke-linejoin:miter;marker:none;marker-start:none;marker-mid:none;marker-end:none;stroke-miterlimit:4;stroke-dasharray:none;stroke-dashoffset:0;stroke-opacity:1;visibility:visible;display:inline;overflow:visible;enable-background:accumulate"
       d="M 229.39096,634.68007 L 223.89472,648.77757 M 241.05197,607.35633 L 235.55574,621.45382"
       id="path6274"
       sodipodi:nodetypes="cccc" />
    <path
       style="fill:none;fill-opacity:1;fill-rule:nonzero;stroke:#000000;stroke-width:1.87311399000000001;stroke-linecap:butt;stroke-linejoin:miter;marker:none;marker-start:none;marker-mid:none;marker-end:none;stroke-miterlimit:4;stroke-dasharray:none;stroke-dashoffset:0;stroke-opacity:1;visibility:visible;display:inline;overflow:visible;enable-background:accumulate"
       d="M 225.86022,624.98457 L 211.76272,619.48833 M 253.18396,636.64557 L 239.08647,631.14934"
       id="path6276"
       sodipodi:nodetypes="cccc" />
    <path
       style="fill:none;fill-opacity:1;fill-rule:nonzero;stroke:#000000;stroke-width:1.87311399000000001;stroke-linecap:butt;stroke-linejoin:miter;marker:none;marker-start:none;marker-mid:none;marker-end:none;stroke-miterlimit:4;stroke-dasharray:none;stroke-dashoffset:0;stroke-opacity:1;visibility:visible;display:inline;overflow:visible;enable-background:accumulate"
       d="M 225.61759,630.56356 L 211.76272,636.64557 M 253.18397,619.48833 L 239.32912,625.57034"
       id="path6278"
       sodipodi:nodetypes="cccc" />
    <path
       style="fill:none;fill-opacity:1;fill-rule:nonzero;stroke:#000000;stroke-width:1.87311399000000001;stroke-linecap:butt;stroke-linejoin:miter;marker:none;marker-start:none;marker-mid:none;marker-end:none;stroke-miterlimit:4;stroke-dasharray:none;stroke-dashoffset:0;stroke-opacity:1;visibility:visible;display:inline;overflow:visible;enable-background:accumulate"
       d="M 229.97673,621.2112 L 223.89472,607.35632 M 241.05196,648.77757 L 234.96995,634.92272"
       id="path6280"
       sodipodi:nodetypes="cccc" />
    <path
       sodipodi:type="arc"
       style="fill:none;fill-opacity:1;fill-rule:nonzero;stroke:#000000;stroke-width:1.87311399000000001;stroke-linecap:butt;stroke-linejoin:miter;marker:none;marker-start:none;marker-mid:none;marker-end:none;stroke-miterlimit:4;stroke-dasharray:none;stroke-dashoffset:0;stroke-opacity:1;visibility:visible;display:inline;overflow:visible;enable-background:accumulate"
       id="path6282"
       sodipodi:cx="125.06416"
       sodipodi:cy="236.06587"
       sodipodi:rx="12.301393"
       sodipodi:ry="12.301393"
       d="M 137.36556,236.06587 A 12.301393,12.301393 0 1 1 112.76277,236.06587 A 12.301393,12.301393 0 1 1 137.36556,236.06587 z"
       transform="translate(205.64011,392.00108)" />
    <path
       sodipodi:type="arc"
       style="fill:none;fill-opacity:1;fill-rule:nonzero;stroke:#000000;stroke-width:1.87311399;stroke-linecap:butt;stroke-linejoin:miter;marker:none;marker-start:none;marker-mid:none;marker-end:none;stroke-miterlimit:4;stroke-dasharray:none;stroke-dashoffset:0;stroke-opacity:1;visibility:visible;display:inline;overflow:visible;enable-background:accumulate"
       id="path6284"
       sodipodi:cx="125.06416"
       sodipodi:cy="236.06587"
       sodipodi:rx="12.301393"
       sodipodi:ry="12.301393"
       d="M 137.36556,236.06587 A 12.301393,12.301393 0 1 1 112.76277,236.06587 A 12.301393,12.301393 0 1 1 137.36556,236.06587 z"
       transform="translate(56.652395,392.00108)" />
    <path
       sodipodi:type="arc"
       style="fill:none;fill-opacity:1;fill-rule:nonzero;stroke:#000000;stroke-width:1.87311399000000001;stroke-linecap:butt;stroke-linejoin:miter;marker:none;marker-start:none;marker-mid:none;marker-end:none;stroke-miterlimit:4;stroke-dasharray:none;stroke-dashoffset:0;stroke-opacity:1;visibility:visible;display:inline;overflow:visible;enable-background:accumulate"
       id="path6288"
       sodipodi:cx="422.11392"
       sodipodi:cy="230.11919"
       sodipodi:rx="16.67193"
       sodipodi:ry="16.67193"
       d="M 438.78585,230.11919 A 16.67193,16.67193 0 1 1 405.44199,230.11919 A 16.67193,16.67193 0 1 1 438.78585,230.11919 z"
       transform="translate(2.6155914,397.94776)" />
    <path
       style="fill:#000000;fill-opacity:1;fill-rule:nonzero;stroke:none;stroke-width:1.87311399000000001;stroke-linecap:butt;stroke-linejoin:miter;marker:none;stroke-miterlimit:4;stroke-dasharray:none;stroke-dashoffset:0;stroke-opacity:1;visibility:visible;display:inline;overflow:visible;enable-background:accumulate"
       d="M 423.80764,604.14507 L 423.80764,611.45757 C 424.11732,611.44041 424.4312,611.39507 424.74514,611.39507 C 425.06488,611.39507 425.36732,611.43978 425.68264,611.45757 L 425.68264,604.14507 L 423.80764,604.14507 z M 417.43264,607.55132 L 415.68264,608.27007 L 417.62014,613.02007 C 418.18962,612.74998 418.76747,612.50651 419.37014,612.30132 L 417.43264,607.55132 z M 432.33889,607.67632 L 430.33889,612.39507 C 430.92398,612.60489 431.50485,612.84249 432.05764,613.11382 L 434.05764,608.39507 L 432.33889,607.67632 z M 408.49514,610.48882 L 407.15139,611.83257 L 412.30764,616.98882 C 412.72155,616.52565 413.18874,616.0908 413.65139,615.67632 L 408.49514,610.48882 z M 440.99514,610.48882 L 435.83889,615.64507 C 436.30508,616.06167 436.73454,616.52285 437.15139,616.98882 L 442.30764,611.83257 L 440.99514,610.48882 z M 405.05764,618.73882 L 404.33889,620.45757 L 409.05764,622.45757 C 409.26929,621.8674 409.50218,621.29612 409.77639,620.73882 L 405.05764,618.73882 z M 444.55764,619.02007 L 439.77639,620.95757 C 440.04753,621.52873 440.2893,622.103 440.49514,622.70757 L 445.24514,620.77007 L 444.55764,619.02007 z M 400.80764,627.14507 L 400.80764,629.02007 L 408.12014,629.02007 C 408.10235,628.70475 408.05764,628.40231 408.05764,628.08257 C 408.05764,627.76863 408.10298,627.45475 408.12014,627.14507 L 400.80764,627.14507 z M 441.37014,627.14507 C 441.38727,627.45451 441.40139,627.76887 441.40139,628.08257 C 441.40139,628.40207 441.3879,628.70499 441.37014,629.02007 L 448.65139,629.02007 L 448.65139,627.14507 L 441.37014,627.14507 z M 408.96389,633.45757 L 404.21389,635.39507 L 404.93264,637.14507 L 409.68264,635.20757 C 409.41395,634.64242 409.16865,634.05549 408.96389,633.45757 z M 440.40139,633.67632 C 440.1907,634.26384 439.95535,634.84012 439.68264,635.39507 L 444.43264,637.39507 L 445.15139,635.67632 L 440.40139,633.67632 z M 412.30764,639.17632 L 407.15139,644.33257 L 408.49514,645.64507 L 413.65139,640.48882 C 413.18543,640.07197 412.72424,639.64251 412.30764,639.17632 z M 437.15139,639.17632 C 436.73651,639.64008 436.30265,640.07394 435.83889,640.48882 L 440.99514,645.64507 L 442.30764,644.33257 L 437.15139,639.17632 z M 417.40139,643.02007 L 415.40139,647.77007 L 417.12014,648.48882 L 419.12014,643.73882 C 418.52736,643.52624 417.96099,643.29576 417.40139,643.02007 z M 431.87014,643.11382 C 431.30329,643.38357 430.71998,643.62715 430.12014,643.83257 L 432.05764,648.58257 L 433.80764,647.89507 L 431.87014,643.11382 z M 423.80764,644.70757 L 423.80764,651.98882 L 425.68264,651.98882 L 425.68264,644.70757 C 425.36756,644.72533 425.06464,644.73882 424.74514,644.73882 C 424.43144,644.73882 424.11708,644.7247 423.80764,644.70757 z"
       id="path6290" />
    <path
       style="fill:#000000;fill-opacity:1;fill-rule:nonzero;stroke:none;stroke-width:3.87492990000000015;stroke-linecap:butt;stroke-linejoin:miter;marker:none;stroke-miterlimit:4;stroke-dasharray:none;stroke-dashoffset:0;stroke-opacity:1;visibility:visible;display:inline;overflow:visible;enable-background:accumulate"
       d="M 164.60729,543.22897 C 151.2244,553.63671 141.6195,566.13115 134.28024,581.60406 L 136.49899,581.60406 C 143.46223,567.25078 153.5465,554.69995 165.87399,544.82281 L 164.60729,543.22897 z"
       id="path6292"
       sodipodi:nodetypes="ccccc" />
    <path
       style="fill:#000000;fill-opacity:1;fill-rule:evenodd;stroke:none;stroke-width:1px;stroke-linecap:butt;stroke-linejoin:miter;stroke-opacity:1;display:inline"
       d="M 133.72726,583.89138 C 142.46917,578.63114 142.52223,578.59922 142.52223,578.59922 L 133.58293,573.65153 L 133.72726,583.89138 z"
       id="path6294"
       sodipodi:nodetypes="cccc" />
    <path
       style="fill:#000000;fill-opacity:1;fill-rule:nonzero;stroke:none;stroke-width:2;stroke-linecap:butt;stroke-linejoin:miter;marker:none;stroke-miterlimit:4;stroke-dasharray:none;stroke-dashoffset:0;stroke-opacity:1;visibility:visible;display:inline;overflow:visible;enable-background:accumulate"
       d="M 430.59274,672.63531 C 427.31807,687.2419 422.45547,701.24786 416.21774,714.47906 L 418.19474,715.49564 C 424.98582,700.59943 429.01169,688.90793 432.62399,672.63531 L 430.59274,672.63531 z"
       id="path6296"
       sodipodi:nodetypes="ccccc" />
    <path
       style="fill:#000000;fill-opacity:1;fill-rule:evenodd;stroke:none;stroke-width:1px;stroke-linecap:butt;stroke-linejoin:miter;stroke-opacity:1;display:inline"
       d="M 432.51598,669.1725 C 425.39323,676.47713 425.35,676.52147 425.35,676.52147 L 435.25159,679.04123 L 432.51598,669.1725 z"
       id="path6298"
       sodipodi:nodetypes="cccc" />
    <path
       style="fill:#000000;fill-opacity:1;fill-rule:evenodd;stroke:none;stroke-width:1px;stroke-linecap:butt;stroke-linejoin:miter;stroke-opacity:1;display:inline"
       d="M 352.39484,633.20434 C 343.65293,627.9441 343.59987,627.91218 343.59987,627.91218 L 352.53917,622.96448 L 352.39484,633.20434 z"
       id="path6300"
       sodipodi:nodetypes="cccc" />
    <text
       xml:space="preserve"
       style="font-size:12px;font-style:normal;font-variant:normal;font-weight:normal;font-stretch:normal;text-align:start;line-height:100%;writing-mode:lr-tb;text-anchor:start;fill:#000000;fill-opacity:1;stroke:none;stroke-width:1px;stroke-linecap:butt;stroke-linejoin:miter;stroke-opacity:1;display:inline;font-family:Century Schoolbook L;-inkscape-font-specification:Century Schoolbook L"
       x="352.69427"
       y="625.09808"
       id="text6302"
       sodipodi:linespacing="100%"><tspan
         sodipodi:role="line"
         x="352.69427"
         y="625.09808"
         id="tspan6304">Inhabited</tspan></text>
    <text
       xml:space="preserve"
       style="font-size:12px;font-style:normal;font-variant:normal;font-weight:normal;font-stretch:normal;text-align:start;line-height:100%;writing-mode:lr-tb;text-anchor:start;fill:#000000;fill-opacity:1;stroke:none;stroke-width:1px;stroke-linecap:butt;stroke-linejoin:miter;stroke-opacity:1;display:inline;font-family:Century Schoolbook L;-inkscape-font-specification:Century Schoolbook L"
       x="362.34766"
       y="639.41095"
       id="text6306"
       sodipodi:linespacing="100%"><tspan
         sodipodi:role="line"
         x="362.34766"
         y="639.41095"
         id="tspan6308">Side</tspan></text>
    <path
       style="fill:#000000;fill-opacity:1;fill-rule:evenodd;stroke:none;stroke-width:1px;stroke-linecap:butt;stroke-linejoin:miter;stroke-opacity:1;display:inline"
       d="M 264.60315,577.57205 C 267.61541,587.31973 267.63369,587.37889 267.63369,587.37889 L 274.57926,579.88559 L 264.60315,577.57205 z"
       id="path6310"
       sodipodi:nodetypes="cccc" />
    <path
       style="fill:#000000;fill-opacity:1;fill-rule:nonzero;stroke:none;stroke-width:7.56057357999999891;stroke-linecap:butt;stroke-linejoin:miter;marker:none;stroke-miterlimit:4;stroke-dasharray:none;stroke-dashoffset:0;stroke-opacity:1;visibility:visible;display:inline;overflow:visible;enable-background:accumulate"
       d="M 268.49899,580.04156 L 267.18649,581.72906 C 270.72673,584.38519 273.93405,587.44038 276.78024,590.82281 L 278.46774,589.44781 C 275.51614,585.9362 272.17032,582.80066 268.49899,580.04156 z"
       id="path6312" />
    <path
       sodipodi:type="arc"
       style="fill:none;fill-opacity:1;fill-rule:nonzero;stroke:none;stroke-width:2;stroke-linecap:butt;stroke-linejoin:miter;marker:none;marker-start:none;marker-mid:none;marker-end:none;stroke-miterlimit:4;stroke-dasharray:none;stroke-dashoffset:0;stroke-opacity:1;visibility:visible;display:inline;overflow:visible;enable-background:accumulate"
       id="path6314"
       sodipodi:cx="259.66379"
       sodipodi:cy="219.64183"
       sodipodi:rx="205.11571"
       sodipodi:ry="205.11571"
       d="M 464.7795,219.64183 A 205.11571,205.11571 0 1 1 54.54808,219.64183 A 205.11571,205.11571 0 1 1 464.7795,219.64183 z"
       transform="matrix(0.4284182,0.8057374,0.8057374,-0.4284182,-55.172561,511.40445)" />
    <path
       transform="translate(6.14885e-2,393.85406)"
       style="font-size:16px;font-style:normal;font-variant:normal;font-weight:normal;font-stretch:normal;text-align:start;line-height:100%;writing-mode:lr-tb;text-anchor:start;fill:#000000;fill-opacity:1;stroke:none;stroke-width:1px;stroke-linecap:butt;stroke-linejoin:miter;stroke-opacity:1;display:inline;font-family:Century Schoolbook L;-inkscape-font-specification:Century Schoolbook L"
       d="M 320.54985,384.67382 C 319.31507,385.38311 318.4838,386.37727 318.08379,387.64035 C 317.58133,389.23906 317.81772,391.09608 318.72625,392.6777 C 320.42377,395.63284 323.78207,396.69295 326.48748,395.13889 C 329.20676,393.57685 329.96903,390.14977 328.26354,387.18075 C 326.574,384.23949 323.21364,383.14366 320.54985,384.67382 M 320.91054,385.33386 C 321.8401,384.7999 322.8641,384.78369 323.80188,385.25986 C 324.78542,385.78354 325.4599,386.54012 326.43219,388.23274 C 327.40448,389.92536 327.71026,390.87527 327.6751,392.00258 C 327.62193,393.06643 327.09796,393.92097 326.11291,394.48681 C 325.12786,395.05265 324.1257,395.07476 323.17995,394.58473 C 322.1666,394.04126 321.52193,393.30446 320.5337,391.58409 C 319.57736,389.91923 319.27157,388.96931 319.30673,387.842 C 319.35783,386.74244 319.87,385.93158 320.91054,385.33386 M 330.32717,383.81149 L 328.10871,385.4762 L 328.48589,386.05159 L 328.96761,385.73581 C 329.46272,385.41125 329.60441,385.45229 329.98159,386.02768 L 332.07804,389.22579 L 332.42891,389.76104 C 332.77978,390.29629 332.69399,390.48645 331.83759,391.04784 L 331.78407,391.08292 L 332.09985,391.56465 L 335.48529,389.3454 L 335.16951,388.86367 L 335.11598,388.89876 C 334.24621,389.46892 334.03761,389.47174 333.68674,388.9365 L 333.33587,388.40125 L 332.42361,387.0096 C 331.9938,386.35392 331.69274,385.69037 331.63818,385.28611 C 331.52446,384.49975 331.85469,383.6902 332.43008,383.31302 C 332.77799,383.08495 333.311,383.02252 333.68715,383.15857 C 334.07208,383.308 334.43767,383.66141 334.85871,384.30371 L 336.27974,386.47146 L 336.63061,387.00671 C 336.98148,387.54196 336.89568,387.73212 336.02591,388.30228 L 335.97238,388.33737 L 336.28816,388.81909 L 339.67361,386.59984 L 339.35783,386.11812 L 339.3043,386.1532 C 338.44791,386.7146 338.23931,386.71742 337.88844,386.18217 L 337.53757,385.64692 L 336.16041,383.54607 C 335.52884,382.58263 335.33081,382.36808 334.79171,382.07101 C 334.03613,381.64801 333.09931,381.70731 332.30982,382.22484 C 331.45342,382.78623 331.04751,383.62626 331.03768,384.89537 L 330.32717,383.81149 M 343.81587,379.13789 C 342.41934,377.18598 340.32254,376.61197 338.74263,377.75835 C 337.08502,378.96111 336.88483,381.30064 338.29431,383.24315 C 339.60982,385.05616 341.68096,385.43134 343.42922,384.16281 C 344.65948,383.27013 345.09845,382.02251 344.73673,380.407 L 344.10494,380.48982 C 344.29752,381.87224 344.03551,382.6554 343.16786,383.28497 C 342.5074,383.76419 341.82152,383.82696 341.07137,383.50147 C 340.55638,383.2821 340.1239,382.90402 339.62004,382.18237 L 343.81587,379.13789 M 339.22894,381.61612 C 338.93764,381.21466 338.78272,380.89217 338.64912,380.43561 C 338.35728,379.46127 338.49918,378.78503 339.12078,378.334 C 339.91074,377.76081 340.92676,378.0713 341.67848,379.10731 C 341.95098,379.48286 341.90961,379.67103 341.4952,379.97172 L 339.22894,381.61612 M 352.27292,374.36544 L 348.2858,372.33836 C 348.14436,372.26889 348.04799,372.20346 347.9967,372.14207 C 347.81204,371.92106 347.88757,371.712 348.30503,371.3632 L 348.56288,371.14777 L 348.19357,370.70575 L 345.27132,373.14733 L 345.64063,373.58935 L 345.77569,373.47651 C 346.1686,373.14823 346.53323,373.13547 347.16459,373.44194 L 352.95144,376.30048 L 353.10177,376.90462 C 353.43941,378.20709 353.40604,379.34001 353.01313,379.66829 C 352.90263,379.76062 352.77565,379.78331 352.71409,379.70964 C 352.69358,379.68509 352.67508,379.63799 352.64632,379.57862 C 352.59083,379.43734 352.52306,379.30632 352.44099,379.20809 C 352.17426,378.88885 351.70922,378.88126 351.35315,379.17876 C 350.9234,379.53782 350.88317,380.11352 351.25249,380.55554 C 351.70387,381.09579 352.52127,381.10089 353.15974,380.56743 C 353.81049,380.02372 354.09629,379.24284 354.03345,378.16946 C 353.98322,377.33574 353.81843,376.63943 353.21996,374.82515 L 351.72673,370.19316 C 351.4079,369.18771 351.46057,368.72671 351.92715,368.33687 L 352.00082,368.27532 L 351.63151,367.8333 L 349.17583,369.88505 L 349.54515,370.32707 L 349.7416,370.16293 C 350.20818,369.7731 350.51748,369.74402 350.78421,370.06326 C 350.8868,370.18604 350.98332,370.37644 351.07177,370.65698 L 352.27292,374.36544 M 359.54538,365.80927 C 357.93771,364.02723 355.78958,363.69326 354.34897,365.01044 C 352.83752,366.39239 352.90234,368.73958 354.52182,370.51082 C 356.03333,372.16397 358.13355,372.30327 359.72767,370.84574 C 360.84945,369.82007 361.14498,368.53092 360.60344,366.96648 L 359.98502,367.12 C 360.33221,368.47189 360.16016,369.27959 359.36901,370.00296 C 358.76679,370.55358 358.09236,370.69327 357.3103,370.45442 C 356.77385,370.29451 356.30151,369.96759 355.71951,369.30734 L 359.54538,365.80927 M 355.26707,368.78879 C 354.93237,368.42274 354.74208,368.11977 354.55786,367.68117 C 354.15804,366.74595 354.22281,366.05802 354.7896,365.53979 C 355.50991,364.8812 356.55446,365.07518 357.41818,366.01983 C 357.73128,366.36227 357.71137,366.55391 357.33351,366.8994 L 355.26707,368.78879 M 363.85993,359.33665 C 363.1466,358.62446 362.65992,358.38726 362.06034,358.44431 C 361.39289,358.52404 360.68045,358.92059 359.95695,359.64525 C 358.69083,360.9134 358.35266,362.45234 359.1679,363.26627 C 359.59816,363.69585 360.12992,363.70673 360.52558,363.31044 C 360.87602,362.95943 360.89825,362.46161 360.55856,362.12247 C 360.41137,361.97551 360.19633,361.87386 359.92476,361.82882 C 359.77767,361.81763 359.7324,361.79504 359.69843,361.76112 C 359.46065,361.52372 359.72033,360.85601 360.26296,360.31251 C 360.6134,359.96151 361.12229,359.67826 361.473,359.66666 C 361.86896,359.6324 362.21984,359.82445 362.72936,360.33316 L 363.17095,360.77404 C 362.18778,362.16642 361.91661,362.61918 361.57782,363.38879 C 360.96795,364.72429 361.02532,365.73117 361.73866,366.44336 C 362.54258,367.24599 363.70779,367.1206 364.7026,366.1242 C 365.48261,365.34293 365.86646,364.32438 365.7751,363.26097 C 366.53344,363.65634 367.04251,363.59936 367.57382,363.06719 C 368.08253,362.55767 368.28549,361.69766 367.95713,361.36983 C 367.87787,361.29069 367.76473,361.29079 367.70821,361.3474 C 367.66299,361.39269 367.62909,361.44929 367.58393,361.56246 C 367.47099,361.81145 367.4371,361.86805 367.34666,361.95863 C 367.03013,362.27567 366.70195,362.17411 366.13581,361.60888 L 363.85993,359.33665 M 364.17868,361.78015 C 364.85804,362.45843 364.98265,362.65066 365.08486,363.13707 C 365.22119,363.83841 364.98425,364.64188 364.49815,365.12876 C 363.98944,365.63828 363.23143,365.6502 362.72191,365.14149 C 362.24635,364.6667 362.14406,364.08978 362.40369,363.35418 C 362.59561,362.84491 362.92327,362.29028 363.65783,361.26014 L 364.17868,361.78015 M 365.31675,354.40549 L 363.5338,356.61282 L 364.04117,357.0775 L 364.48423,356.59373 C 364.88407,356.15716 365.0315,356.16201 365.53887,356.62668 L 368.35888,359.20942 L 368.83085,359.64168 C 369.30282,360.07393 369.26654,360.27937 368.56412,361.04632 L 368.5209,361.09352 L 368.94567,361.48255 L 371.83098,358.33216 L 371.40621,357.94313 L 371.20089,358.16731 C 370.50928,358.92246 370.30781,358.97661 369.83584,358.54435 L 369.36388,358.11209 L 369.24588,358.00403 C 368.36095,357.19355 367.61549,356.20707 367.2131,355.29612 C 366.8117,354.40779 366.81334,353.67161 367.20822,353.12201 C 367.24571,353.4601 367.32048,353.61537 367.54467,353.82069 C 367.92224,354.16649 368.44217,354.14366 368.78798,353.76609 C 369.17701,353.34131 369.12859,352.75456 368.64482,352.3115 C 368.07846,351.79279 367.33347,351.84816 366.76073,352.47351 C 366.07992,353.21686 366.08733,354.41695 366.77985,355.74549 L 365.31675,354.40549 M 368.37646,350.21156 L 368.60688,349.94546 L 366.76649,347.69569 C 366.71649,347.63123 366.65601,347.57886 366.58344,347.51602 C 366.28105,347.25417 365.8748,347.28336 365.61296,347.58575 C 365.36159,347.87604 365.3803,348.29438 365.67059,348.54575 C 365.74317,348.60859 365.80364,348.66096 365.88669,348.71171 L 368.37646,350.21156 M 373.63505,344.42921 L 373.28075,344.86288 L 373.43324,345.58663 C 372.72188,345.74925 372.20876,346.07384 371.70262,346.69336 C 370.8118,347.78373 370.94331,349.08951 372.02129,349.97021 C 372.50452,350.36501 373.04501,350.53799 373.51552,350.46786 C 374.00855,350.39546 374.36529,350.2117 375.14613,349.60999 L 375.83134,349.07477 C 376.86647,348.28825 377.39773,348.14378 377.89335,348.54869 C 378.4757,349.02447 378.46955,349.86654 377.87229,350.59759 C 377.02197,351.63839 375.7455,351.83518 374.26349,351.12026 L 373.85857,351.61588 L 376.20039,353.52912 L 376.55469,353.09545 L 376.40098,352.24674 C 377.22491,352.07279 377.88882,351.66479 378.39496,351.04526 C 379.38701,349.83099 379.28918,348.4081 378.13686,347.46667 C 377.59168,347.02126 377.02868,346.85054 376.46026,346.96465 C 375.9571,347.04944 375.65552,347.21627 374.87694,347.84049 L 374.2345,348.34867 C 373.52905,348.90867 373.52905,348.90867 373.22293,349.03047 C 372.87632,349.20184 372.48452,349.15033 372.21193,348.92763 C 371.7163,348.52271 371.74165,347.7583 372.29841,347.07682 C 372.68309,346.60598 373.15798,346.35347 373.77596,346.27986 C 374.27126,346.22997 374.63042,346.29613 375.36236,346.56354 L 375.71666,346.12987 L 373.63505,344.42921 M 378.76663,337.90736 L 377.25893,340.31111 L 377.81797,340.71213 L 378.20034,340.17909 C 378.5454,339.69806 378.69236,339.68534 379.2514,340.08636 L 382.35863,342.31528 L 382.87867,342.68832 C 383.39871,343.06136 383.38713,343.26966 382.78094,344.11472 L 382.74363,344.16672 L 383.21167,344.50246 L 385.70172,341.0312 L 385.23369,340.69547 L 385.05649,340.94249 C 384.45963,341.77455 384.26603,341.85227 383.74599,341.47923 L 383.22595,341.10619 L 383.09595,341.01293 C 382.12087,340.31348 381.26336,339.42268 380.75546,338.56608 C 380.25123,337.7318 380.16529,337.00065 380.49198,336.40798 C 380.56943,336.73921 380.66213,336.88448 380.90915,337.06167 C 381.32518,337.36011 381.8387,337.27558 382.13714,336.85955 C 382.47287,336.39152 382.355,335.81469 381.82196,335.43232 C 381.19792,334.98467 380.4648,335.12827 379.97052,335.81732 C 379.38298,336.63638 379.53309,337.82707 380.37874,339.06379 L 378.76663,337.90736 M 388.20251,330.87347 C 386.20622,329.54115 384.04189,329.74531 382.96914,331.37611 C 381.84364,333.08711 382.48328,335.3464 384.48836,336.66534 C 386.35977,337.89636 388.42983,337.51528 389.61688,335.7107 C 390.45221,334.44082 390.42188,333.11857 389.5125,331.73518 L 388.95077,332.03597 C 389.61954,333.26108 389.65125,334.0863 389.06212,334.9819 C 388.61367,335.66363 387.99425,335.96477 387.17748,335.92543 C 386.61819,335.90225 386.07999,335.70143 385.35358,335.20445 L 388.20251,330.87347 M 384.78758,334.81299 C 384.3732,334.5404 384.11429,334.29349 383.82794,333.91361 C 383.21056,333.10532 383.10428,332.42257 383.52635,331.78094 C 384.06272,330.96554 385.12291,330.89688 386.19228,331.60032 C 386.57993,331.85532 386.60774,332.04597 386.32636,332.47372 L 384.78758,334.81299 M 392.27763,327.34069 L 387.70163,326.73671 C 387.59459,326.72879 387.45451,326.68256 387.37205,326.63341 C 387.1384,326.49415 387.16243,326.26633 387.49829,325.70282 L 387.61297,325.51041 L 387.11819,325.21551 L 385.18495,328.45908 L 385.67974,328.75398 L 385.74527,328.64403 C 386.05655,328.12176 386.29493,328.00307 386.87691,328.08917 L 393.81095,329.01826 L 394.09766,328.53722 L 390.43674,323.7103 C 389.75082,322.79857 389.59535,322.18437 389.90664,321.6621 L 389.9394,321.60712 L 389.44462,321.31222 L 387.80629,324.06102 L 388.30107,324.35592 L 388.41575,324.1635 C 388.70246,323.68246 389.02303,323.51963 389.33914,323.70803 C 389.49033,323.79814 389.67746,323.98418 389.84266,324.17578 L 392.27763,327.34069 M 391.0491,317.80463 C 390.12489,319.52397 390.93378,321.70263 392.90679,322.7632 C 394.83753,323.80104 397.115,323.28142 398.02406,321.59027 C 398.93312,319.89911 398.11014,317.71288 396.16532,316.66746 C 394.23458,315.62962 391.94301,316.14166 391.0491,317.80463 M 391.6551,318.13038 C 392.18538,317.14387 393.50962,317.14726 395.36989,318.14722 C 397.24425,319.15477 397.9635,320.24983 397.41807,321.26452 C 396.87263,322.27921 395.56249,322.2834 393.70222,321.28344 C 391.78558,320.25317 391.08694,319.18735 391.6551,318.13038 M 390.55469,309.7947 L 389.40234,312.52685 L 390.01927,312.83138 L 390.36629,312.12836 C 390.62124,311.61186 390.76417,311.57535 391.3811,311.87987 L 398.69823,315.49169 L 399.27212,315.77497 C 399.84601,316.05825 399.86854,316.26564 399.4153,317.18387 L 399.36572,317.2843 L 399.88223,317.53925 L 401.71646,313.8233 L 401.19996,313.56835 L 401.15038,313.66878 C 400.69006,314.60135 400.51172,314.7096 399.93783,314.42632 L 399.36394,314.14304 L 390.55469,309.7947 M 404.73866,307.47258 L 405.82146,304.76706 L 405.19301,304.48706 L 405.03022,304.85244 C 404.67209,305.65627 404.48846,305.71458 403.5531,305.29784 L 398.43783,303.01879 L 397.37442,305.83804 L 398.00287,306.11804 L 398.33496,305.37268 C 398.57589,304.83192 398.71726,304.78981 399.34571,305.06981 L 401.14336,305.87073 C 401.97641,306.24189 402.41964,306.54446 402.80426,306.97857 C 403.31058,307.572 403.43011,308.3259 403.11104,309.04204 C 402.90919,309.4951 402.57912,309.80347 402.20217,309.86323 C 401.83983,309.92951 401.68066,309.89362 400.87683,309.53548 L 396.41924,307.54945 L 395.44048,310.17871 L 396.06893,310.45871 L 396.31637,309.90334 C 396.5573,309.36258 396.69867,309.32047 397.32712,309.60047 L 400.48397,311.00697 C 401.22933,311.33906 401.59153,311.43037 402.02535,311.36091 C 402.80038,311.23328 403.44908,310.68152 403.83977,309.80462 C 404.26954,308.84003 404.17446,307.99192 403.52561,306.93212 L 404.73866,307.47258 M 400.10813,298.86927 L 397.16219,297.70407 L 396.92092,298.31409 C 398.79627,299.2279 399.51931,300.27095 399.13192,301.51142 L 399.71218,301.74092 L 400.19473,300.52089 L 403.98874,302.02152 C 405.03023,302.43346 405.41397,302.55082 405.81502,302.53739 C 406.53407,302.54649 407.11167,302.0867 407.45299,301.22375 C 407.6825,300.64349 407.70404,300.06701 407.51206,299.59534 C 407.23015,298.91603 406.5534,298.32145 405.73509,297.99778 C 405.64582,297.96247 405.54167,297.92128 405.387,297.87731 L 405.13984,298.50221 C 406.46124,299.07647 406.99265,299.73402 406.70429,300.46306 C 406.56894,300.80527 406.2727,301.03222 405.97858,301.03633 C 405.73497,301.04321 405.34535,300.94072 404.80973,300.72887 L 400.7479,299.12231 L 401.61297,296.93518 L 400.9732,296.68213 L 400.10813,298.86927 M 402.28706,293.07771 L 401.43023,295.96646 L 402.07727,296.2003 L 402.35461,295.43287 C 402.55582,294.87612 402.69378,294.8239 403.34082,295.05773 L 406.93718,296.35744 L 407.53908,296.57496 C 408.14098,296.79248 408.18649,296.99607 407.83845,297.95911 L 407.80039,298.06444 L 408.3421,298.26021 L 409.75056,294.36291 L 409.20885,294.16714 L 409.17078,294.27247 C 408.81731,295.25056 408.65216,295.37802 408.05026,295.16049 L 407.44836,294.94297 L 402.28706,293.07771 M 398.28465,292.43086 C 398.11063,292.91238 398.36047,293.44501 398.84199,293.61902 C 399.30846,293.7876 399.85614,293.5432 400.02472,293.07673 C 400.20417,292.58016 399.95433,292.04753 399.47281,291.87351 C 398.99129,291.6995 398.45866,291.94934 398.28465,292.43086 M 403.82806,287.7865 C 403.22845,289.64412 404.41632,291.64158 406.54802,292.32965 C 408.63404,293.00297 410.78077,292.08186 411.37055,290.25469 C 411.96032,288.42752 410.75723,286.42515 408.65598,285.74691 C 406.56996,285.07358 404.408,285.98978 403.82806,287.7865 M 404.4828,287.99783 C 404.82683,286.93198 406.13004,286.69693 408.13993,287.34568 C 410.16505,287.99935 411.06968,288.94705 410.71581,290.04335 C 410.36195,291.13966 409.07396,291.37962 407.06407,290.73087 C 404.99328,290.06246 404.11419,289.13982 404.4828,287.99783 M 406.03414,281.33727 L 405.47886,284.05471 L 406.14284,284.23494 L 406.29373,283.67906 C 406.44881,283.10774 406.58205,283.04443 407.24603,283.22466 L 410.93648,284.22643 L 411.55413,284.39409 C 412.17177,284.56175 412.23376,284.76094 411.9655,285.74918 L 411.94874,285.81095 L 412.50462,285.96184 L 413.56507,282.05521 L 413.00918,281.90432 L 412.99242,281.96608 C 412.71997,282.96976 412.56578,283.11027 411.94813,282.94261 L 411.33048,282.77496 L 409.72459,282.33904 C 408.96797,282.13366 408.30246,281.83695 407.99341,281.57069 C 407.38658,281.05781 407.09652,280.23302 407.27676,279.56905 C 407.38573,279.16757 407.7431,278.76721 408.11479,278.61942 C 408.50193,278.47582 409.00995,278.49767 409.75113,278.69886 L 412.25261,279.37789 L 412.87026,279.54555 C 413.4879,279.71321 413.54989,279.9124 413.27744,280.91608 L 413.26067,280.97784 L 413.81656,281.12874 L 414.87701,277.22211 L 414.32112,277.07121 L 414.30436,277.13298 C 414.0361,278.12122 413.88191,278.26173 413.26426,278.09407 L 412.64661,277.92641 L 410.22234,277.26835 C 409.11057,276.96656 408.82005,276.93744 408.2196,277.07287 C 407.37364,277.2577 406.71208,277.92365 406.46478,278.83469 C 406.19652,279.82292 406.45018,280.72073 407.28488,281.67678 L 406.03414,281.33727"
       id="text6316" />
    <g
       style="display:inline"
       id="g6322"
       transform="matrix(-0.5905277,-0.8433609,0.8433609,-0.5905277,168.64985,957.32308)">
      <path
         style="font-size:15.54071617px;font-style:normal;font-variant:normal;font-weight:normal;font-stretch:normal;text-indent:0;text-align:start;text-decoration:none;line-height:100%;letter-spacing:normal;word-spacing:normal;text-transform:none;direction:ltr;block-progression:tb;writing-mode:lr-tb;text-anchor:start;fill:#000000;fill-opacity:1;fill-rule:nonzero;stroke:none;stroke-width:0;stroke-linecap:butt;stroke-linejoin:miter;stroke-miterlimit:0;stroke-dashoffset:0;stroke-opacity:1;marker:none;marker-start:none;marker-mid:none;marker-end:none;visibility:visible;display:inline;overflow:visible;enable-background:accumulate;font-family:Century Schoolbook L;-inkscape-font-specification:Century Schoolbook L"
         d="M 328.67285,242.20112 L 328.70225,241.51796 L 327.91709,241.32862 C 326.93209,241.08401 326.82875,240.95512 326.87018,239.99249 L 327.01985,236.51459 C 328.09164,237.63401 328.40233,238.00515 329.13588,239.03225 C 330.16192,240.49191 330.67929,241.12083 331.12971,241.49798 C 331.79148,242.02422 332.47948,242.30271 333.22474,242.33478 C 334.97922,242.41029 336.31586,240.99007 336.40272,238.97165 C 336.48758,236.9998 335.27989,235.42343 333.6341,235.35261 C 332.65594,235.31051 331.96693,235.77862 331.93486,236.52389 C 331.91014,237.09836 332.28159,237.50322 332.84054,237.52728 C 333.2287,237.54398 333.59516,237.34198 333.74959,237.00642 C 334.02274,236.44263 334.0396,236.41225 334.24144,236.42093 C 334.47434,236.43096 334.82476,236.60159 335.07936,236.83031 C 335.52844,237.23852 335.77985,237.90265 335.74845,238.63239 C 335.69366,239.90555 334.86841,240.64779 333.5642,240.59167 C 332.41525,240.54222 331.39837,239.95403 330.08751,238.60655 L 329.16429,237.64907 L 327.9122,236.38189 C 327.28415,235.79487 326.93907,235.50003 326.06794,234.77812 L 325.6332,234.75941 L 325.33186,241.76179 L 328.67285,242.20112 M 335.39356,249.95118 L 328.78868,243.76021 L 327.92572,243.64755 L 327.3604,247.97774 L 326.55908,247.87313 L 326.11219,247.81478 C 325.46497,247.73029 325.40603,247.58154 325.56899,246.33333 L 325.59112,246.16382 L 324.86685,246.06927 L 324.2794,250.56897 L 325.00367,250.66353 L 325.01171,250.60189 C 325.17467,249.35368 325.26983,249.22505 325.91704,249.30955 L 326.36393,249.36789 L 327.16525,249.47251 L 326.92182,251.33711 L 327.78478,251.44977 L 328.02821,249.58517 L 332.23512,250.13439 C 334.16136,250.38587 334.16137,250.38587 335.30705,250.61381 L 335.39356,249.95118 M 328.22335,248.0904 L 328.66595,244.70021 L 332.89257,248.69998 L 328.22335,248.0904 M 333.58295,261.68909 L 334.17246,258.86996 L 333.52763,258.69459 L 333.33188,259.4144 C 333.18098,259.96926 333.05154,260.03069 332.40671,259.85532 L 324.75872,257.77542 L 324.15888,257.6123 C 323.55904,257.44917 323.49892,257.25566 323.75993,256.29591 L 323.77624,256.23593 L 323.23638,256.08911 L 322.20459,259.88312 L 322.74445,260.02993 L 322.76076,259.96995 C 323.02585,258.99521 323.17568,258.8588 323.77552,259.02193 L 324.37537,259.18505 L 325.91996,259.60511 C 326.66976,259.80902 327.31604,260.09752 327.61609,260.35627 C 328.20527,260.85471 328.48662,261.65596 328.31126,262.30079 C 328.20523,262.69069 327.85794,263.0794 327.49684,263.22277 C 327.10576,263.35799 326.62733,263.34062 325.89252,263.14078 L 323.47815,262.48419 L 322.87831,262.32106 C 322.27847,262.15793 322.21836,261.96442 322.48344,260.98968 L 322.49976,260.9297 L 321.9599,260.78288 L 320.9281,264.57688 L 321.46796,264.7237 L 321.48428,264.66372 C 321.74528,263.70397 321.89512,263.56756 322.49496,263.73069 L 323.0948,263.89382 L 325.44918,264.5341 C 326.5289,264.82773 326.81106,264.85615 327.39434,264.72488 C 328.2161,264.54574 328.8549,263.9142 329.09959,263.01444 C 329.3606,262.05469 329.11055,261.19754 328.28934,260.24947 L 333.58295,261.68909 M 326.47371,271.10637 C 327.12974,269.32752 326.05667,267.34164 324.01536,266.58881 C 322.0178,265.85211 319.89769,266.66036 319.25241,268.41005 C 318.60713,270.15973 319.69479,272.15099 321.70693,272.89307 C 323.70449,273.62976 325.83918,272.82689 326.47371,271.10637 M 325.84674,270.87514 C 325.47032,271.89579 324.19621,272.0719 322.27155,271.36209 C 320.33232,270.6469 319.49222,269.69108 319.87939,268.64127 C 320.26655,267.59146 321.52609,267.40998 323.45074,268.11979 C 325.43372,268.8511 326.25004,269.78159 325.84674,270.87514 M 315.32825,277.8995 L 314.21949,280.50381 L 314.82382,280.78901 L 314.98964,280.43765 C 315.35443,279.66467 315.53398,279.61193 316.43346,280.03642 L 321.35245,282.35784 L 322.44478,279.64268 L 321.84045,279.35747 L 321.50219,280.07424 C 321.25678,280.59425 321.1186,280.63215 320.51427,280.34694 L 318.7856,279.53113 C 317.9845,279.15307 317.56051,278.84987 317.19621,278.42018 C 316.71711,277.8332 316.617,277.09858 316.942,276.40993 C 317.14761,275.97424 317.47466,275.68179 317.84196,275.63174 C 318.19522,275.57505 318.34903,275.61327 319.12201,275.97807 L 323.40856,278.00102 L 324.41467,275.46856 L 323.81034,275.18336 L 323.5583,275.71742 C 323.31289,276.23743 323.17472,276.27533 322.57038,275.99012 L 319.53466,274.55748 C 318.8179,274.21921 318.46812,274.12288 318.04538,274.18114 C 317.29008,274.28867 316.64846,274.81072 316.25051,275.65398 C 315.81275,276.58156 315.88712,277.40714 316.49475,278.45001 L 315.32825,277.8995 M 318.78609,287.01307 L 320.01393,284.54567 L 319.43528,284.21142 L 319.11657,284.76316 C 318.82896,285.26107 318.68813,285.2874 318.10948,284.95315 L 314.89325,283.09535 L 314.35497,282.78442 C 313.81669,282.47349 313.808,282.27105 314.31326,281.39635 L 314.34435,281.34252 L 313.8599,281.06268 L 311.78445,284.6557 L 312.2689,284.93554 L 312.41659,284.67985 C 312.91408,283.81861 313.09378,283.72499 313.63206,284.03592 L 314.17034,284.34685 L 314.30491,284.42458 C 315.31419,285.00757 316.22809,285.78674 316.80081,286.56624 C 317.36785,287.3245 317.52072,288.02301 317.26153,288.62707 C 317.15505,288.3143 317.05157,288.18274 316.79589,288.03505 C 316.36526,287.78631 315.87697,287.91704 315.62822,288.34766 C 315.34839,288.83211 315.5174,289.37841 316.06913,289.69712 C 316.71507,290.07023 317.40998,289.86143 317.82196,289.14821 C 318.31168,288.30042 318.0529,287.16385 317.11743,286.04919 L 318.78609,287.01307 M 313.35479,295.87143 L 313.65955,295.4209 L 313.44867,294.73414 C 314.12256,294.51455 314.5905,294.15565 315.02588,293.51204 C 315.79215,292.37929 315.5506,291.12767 314.43072,290.37011 C 313.92871,290.03051 313.39073,289.9105 312.94172,290.01954 C 312.47113,290.13274 312.14213,290.34172 311.43947,290.99215 L 310.82351,291.56988 C 309.89104,292.42134 309.38978,292.60761 308.8749,292.2593 C 308.26991,291.85005 308.20213,291.03494 308.71588,290.27548 C 309.44731,289.19422 310.66487,288.8921 312.16106,289.45393 L 312.50936,288.93904 L 310.07653,287.29331 L 309.77176,287.74384 L 309.99476,288.55137 C 309.21297,288.79178 308.60646,289.24458 308.17109,289.88819 C 307.31775,291.14966 307.53696,292.51751 308.73406,293.32731 C 309.30044,293.71044 309.86,293.82629 310.39987,293.66614 C 310.87917,293.54007 311.1563,293.35229 311.85479,292.68029 L 312.43177,292.13246 C 313.06515,291.52898 313.06515,291.52898 313.3506,291.38436 C 313.67089,291.18825 314.05441,291.20377 314.33759,291.39534 C 314.85248,291.74364 314.89488,292.4853 314.41597,293.19327 C 314.08508,293.68241 313.64781,293.96825 313.05645,294.09356 C 312.5817,294.18518 312.22847,294.15263 311.49703,293.95803 L 311.19226,294.40856 L 313.35479,295.87143"
         id="text6324" />
      <path
         transform="matrix(0.483393,0,0,0.483393,100.89222,128.03956)"
         d="M 464.7795,219.64183 A 205.11571,205.11571 0 1 1 54.54808,219.64183 A 205.11571,205.11571 0 1 1 464.7795,219.64183 z"
         sodipodi:ry="205.11571"
         sodipodi:rx="205.11571"
         sodipodi:cy="219.64183"
         sodipodi:cx="259.66379"
         id="path6330"
         style="opacity:1;fill:none;fill-opacity:1;fill-rule:nonzero;stroke:none;stroke-width:3.8749299;stroke-linecap:butt;stroke-linejoin:miter;marker:none;marker-start:none;marker-mid:none;marker-end:none;stroke-miterlimit:4;stroke-dasharray:none;stroke-dashoffset:0;stroke-opacity:1;visibility:visible;display:inline;overflow:visible;enable-background:accumulate"
         sodipodi:type="arc" />
      <path
         transform="matrix(0.5751814,0,0,0.5751814,77.0581,107.87899)"
         d="M 464.7795,219.64183 A 205.11571,205.11571 0 1 1 54.54808,219.64183 A 205.11571,205.11571 0 1 1 464.7795,219.64183 z"
         sodipodi:ry="205.11571"
         sodipodi:rx="205.11571"
         sodipodi:cy="219.64183"
         sodipodi:cx="259.66379"
         id="path6332"
         style="opacity:1;fill:none;fill-opacity:1;fill-rule:nonzero;stroke:none;stroke-width:3.8749299;stroke-linecap:butt;stroke-linejoin:miter;marker:none;marker-start:none;marker-mid:none;marker-end:none;stroke-miterlimit:4;stroke-dasharray:none;stroke-dashoffset:0;stroke-opacity:1;visibility:visible;display:inline;overflow:visible;enable-background:accumulate"
         sodipodi:type="arc" />
      <text
         xml:space="preserve"
         style="font-size:15.54071617px;font-style:normal;font-variant:normal;font-weight:normal;font-stretch:normal;text-align:start;line-height:100%;writing-mode:lr-tb;text-anchor:start;fill:#000000;fill-opacity:1;stroke:none;stroke-width:1px;stroke-linecap:butt;stroke-linejoin:miter;stroke-opacity:1;font-family:Century Schoolbook L;-inkscape-font-specification:Century Schoolbook L"
         x="211.26942"
         y="-343.55597"
         id="text6334"
         sodipodi:linespacing="100%"
         transform="matrix(-0.5735764,0.819152,-0.819152,-0.5735764,0,0)"><tspan
           sodipodi:role="line"
           id="tspan6336"
           x="211.26942"
           y="-343.55597" /></text>
    </g>
    <text
       xml:space="preserve"
       style="font-size:16px;font-style:normal;font-variant:normal;font-weight:normal;font-stretch:normal;text-align:start;line-height:100%;writing-mode:lr-tb;text-anchor:start;fill:#000000;fill-opacity:1;stroke:none;stroke-width:1px;stroke-linecap:butt;stroke-linejoin:miter;stroke-opacity:1;display:inline;font-family:Century Schoolbook L;-inkscape-font-specification:Century Schoolbook L"
       x="386.82233"
       y="602.20264"
       id="text6338"
       sodipodi:linespacing="100%"><tspan
         sodipodi:role="line"
         id="tspan6340"
         x="386.82233"
         y="602.20264">Sun</tspan></text>
    <text
       xml:space="preserve"
       style="font-size:16px;font-style:normal;font-variant:normal;font-weight:normal;font-stretch:normal;text-align:start;line-height:100%;writing-mode:lr-tb;text-anchor:start;fill:#000000;fill-opacity:1;stroke:none;stroke-width:1px;stroke-linecap:butt;stroke-linejoin:miter;stroke-opacity:1;display:inline;font-family:Century Schoolbook L;-inkscape-font-specification:Century Schoolbook L"
       x="85.408958"
       y="618.21948"
       id="text6342"
       sodipodi:linespacing="100%"><tspan
         sodipodi:role="line"
         id="tspan6344"
         x="85.408958"
         y="618.21948">Antichthon</tspan></text>
    <text
       xml:space="preserve"
       style="font-size:16px;font-style:normal;font-variant:normal;font-weight:normal;font-stretch:normal;text-align:start;line-height:100%;writing-mode:lr-tb;text-anchor:start;fill:#000000;fill-opacity:1;stroke:none;stroke-width:1px;stroke-linecap:butt;stroke-linejoin:miter;stroke-opacity:1;display:inline;font-family:Century Schoolbook L;-inkscape-font-specification:Century Schoolbook L"
       x="333.92007"
       y="610.1723"
       id="text6346"
       sodipodi:linespacing="100%"><tspan
         sodipodi:role="line"
         id="tspan6348"
         x="333.92007"
         y="610.1723">Earth</tspan></text>
    <path
       style="fill:none;fill-opacity:1;fill-rule:nonzero;stroke:#000000;stroke-width:1.47872387999999999;stroke-linecap:butt;stroke-linejoin:miter;marker:none;marker-start:none;marker-mid:none;marker-end:none;stroke-miterlimit:4;stroke-dasharray:none;stroke-dashoffset:0;stroke-opacity:1;visibility:visible;display:inline;overflow:visible;enable-background:accumulate"
       d="M 348.38132,628.08441 L 393.35979,628.08441"
       id="path6350" />
  </g>
  <g
     inkscape:groupmode="layer"
     id="layer9"
     inkscape:label="text"
     style="display:inline">
    <path
       sodipodi:type="arc"
       style="fill:none;fill-opacity:1;fill-rule:nonzero;stroke:#000000;stroke-width:2;stroke-linecap:butt;stroke-linejoin:miter;marker:none;marker-start:none;marker-mid:none;marker-end:none;stroke-miterlimit:4;stroke-dasharray:none;stroke-dashoffset:0;stroke-opacity:1;visibility:visible;display:inline;overflow:visible;enable-background:accumulate"
       id="path5456"
       sodipodi:cx="259.66379"
       sodipodi:cy="219.64183"
       sodipodi:rx="205.11571"
       sodipodi:ry="205.11571"
       d="M 464.7795,219.64183 A 205.11571,205.11571 0 1 1 54.54808,219.64183 A 205.11571,205.11571 0 1 1 464.7795,219.64183 z"
       transform="matrix(0.936557,0,0,0.936557,-10.71658,28.505791)" />
    <path
       sodipodi:type="arc"
       style="fill:none;fill-opacity:1;fill-rule:nonzero;stroke:#000000;stroke-width:3.87492990000000015;stroke-linecap:butt;stroke-linejoin:miter;marker:none;marker-start:none;marker-mid:none;marker-end:none;stroke-miterlimit:4;stroke-dasharray:none;stroke-dashoffset:0;stroke-opacity:1;visibility:visible;display:inline;overflow:visible;enable-background:accumulate"
       id="path5967"
       sodipodi:cx="259.66379"
       sodipodi:cy="219.64183"
       sodipodi:rx="205.11571"
       sodipodi:ry="205.11571"
       d="M 464.7795,219.64183 A 205.11571,205.11571 0 1 1 54.54808,219.64183 A 205.11571,205.11571 0 1 1 464.7795,219.64183 z"
       transform="matrix(0.483393,0,0,0.483393,106.95371,128.03956)" />
    <path
       sodipodi:type="arc"
       style="fill:none;fill-opacity:1;fill-rule:nonzero;stroke:#000000;stroke-width:7.56057357999999979;stroke-linecap:butt;stroke-linejoin:miter;marker:none;marker-start:none;marker-mid:none;marker-end:none;stroke-miterlimit:4;stroke-dasharray:none;stroke-dashoffset:0;stroke-opacity:1;visibility:visible;display:inline;overflow:visible;enable-background:accumulate"
       id="path5969"
       sodipodi:cx="259.66379"
       sodipodi:cy="219.64183"
       sodipodi:rx="205.11571"
       sodipodi:ry="205.11571"
       d="M 464.7795,219.64183 A 205.11571,205.11571 0 1 1 54.54808,219.64183 A 205.11571,205.11571 0 1 1 464.7795,219.64183 z"
       transform="matrix(0.2477476,0,0,0.2477476,168.14227,179.79715)" />
    <path
       style="fill:none;fill-opacity:1;fill-rule:nonzero;stroke:#000000;stroke-width:1.87311399000000001;stroke-linecap:butt;stroke-linejoin:miter;marker:none;marker-start:none;marker-mid:none;marker-end:none;stroke-miterlimit:4;stroke-dasharray:none;stroke-dashoffset:0;stroke-opacity:1;visibility:visible;display:inline;overflow:visible;enable-background:accumulate"
       d="M 232.47335,211.79587 L 232.47335,256.6299"
       id="path5971" />
    <path
       style="fill:none;fill-opacity:1;fill-rule:nonzero;stroke:#000000;stroke-width:1.87311399000000001;stroke-linecap:butt;stroke-linejoin:miter;marker:none;marker-start:none;marker-mid:none;marker-end:none;stroke-miterlimit:4;stroke-dasharray:none;stroke-dashoffset:0;stroke-opacity:1;visibility:visible;display:inline;overflow:visible;enable-background:accumulate"
       d="M 254.89037,234.21289 L 210.05634,234.21289"
       id="path5975" />
    <path
       style="fill:none;fill-opacity:1;fill-rule:nonzero;stroke:#000000;stroke-width:1.87311399000000001;stroke-linecap:butt;stroke-linejoin:miter;marker:none;marker-start:none;marker-mid:none;marker-end:none;stroke-miterlimit:4;stroke-dasharray:none;stroke-dashoffset:0;stroke-opacity:1;visibility:visible;display:inline;overflow:visible;enable-background:accumulate"
       d="M 234.47335,236.21288 L 248.32457,250.06411 M 216.62213,218.36166 L 230.47335,232.21288"
       id="path5977"
       sodipodi:nodetypes="cccc" />
    <path
       style="fill:none;fill-opacity:1;fill-rule:nonzero;stroke:#000000;stroke-width:1.87311399000000001;stroke-linecap:butt;stroke-linejoin:miter;marker:none;marker-start:none;marker-mid:none;marker-end:none;stroke-miterlimit:4;stroke-dasharray:none;stroke-dashoffset:0;stroke-opacity:1;visibility:visible;display:inline;overflow:visible;enable-background:accumulate"
       d="M 230.47335,236.21289 L 216.62212,250.06411 M 248.32457,218.36167 L 234.47335,232.21289"
       id="path5979"
       sodipodi:nodetypes="cccc" />
    <path
       style="fill:none;fill-opacity:1;fill-rule:nonzero;stroke:#000000;stroke-width:1.87311399000000001;stroke-linecap:butt;stroke-linejoin:miter;marker:none;marker-start:none;marker-mid:none;marker-end:none;stroke-miterlimit:4;stroke-dasharray:none;stroke-dashoffset:0;stroke-opacity:1;visibility:visible;display:inline;overflow:visible;enable-background:accumulate"
       d="M 229.39096,240.82601 L 223.89472,254.92351 M 241.05197,213.50227 L 235.55574,227.59976"
       id="path5981"
       sodipodi:nodetypes="cccc" />
    <path
       style="fill:none;fill-opacity:1;fill-rule:nonzero;stroke:#000000;stroke-width:1.87311399000000001;stroke-linecap:butt;stroke-linejoin:miter;marker:none;marker-start:none;marker-mid:none;marker-end:none;stroke-miterlimit:4;stroke-dasharray:none;stroke-dashoffset:0;stroke-opacity:1;visibility:visible;display:inline;overflow:visible;enable-background:accumulate"
       d="M 225.86022,231.13051 L 211.76272,225.63427 M 253.18396,242.79151 L 239.08647,237.29528"
       id="path5983"
       sodipodi:nodetypes="cccc" />
    <path
       style="fill:none;fill-opacity:1;fill-rule:nonzero;stroke:#000000;stroke-width:1.87311399000000001;stroke-linecap:butt;stroke-linejoin:miter;marker:none;marker-start:none;marker-mid:none;marker-end:none;stroke-miterlimit:4;stroke-dasharray:none;stroke-dashoffset:0;stroke-opacity:1;visibility:visible;display:inline;overflow:visible;enable-background:accumulate"
       d="M 225.61759,236.7095 L 211.76272,242.79151 M 253.18397,225.63427 L 239.32912,231.71628"
       id="path5985"
       sodipodi:nodetypes="cccc" />
    <path
       style="fill:none;fill-opacity:1;fill-rule:nonzero;stroke:#000000;stroke-width:1.87311399000000001;stroke-linecap:butt;stroke-linejoin:miter;marker:none;marker-start:none;marker-mid:none;marker-end:none;stroke-miterlimit:4;stroke-dasharray:none;stroke-dashoffset:0;stroke-opacity:1;visibility:visible;display:inline;overflow:visible;enable-background:accumulate"
       d="M 229.97673,227.35714 L 223.89472,213.50226 M 241.05196,254.92351 L 234.96995,241.06866"
       id="path5989"
       sodipodi:nodetypes="cccc" />
    <path
       sodipodi:type="arc"
       style="fill:none;fill-opacity:1;fill-rule:nonzero;stroke:#000000;stroke-width:1.87311399000000001;stroke-linecap:butt;stroke-linejoin:miter;marker:none;marker-start:none;marker-mid:none;marker-end:none;stroke-miterlimit:4;stroke-dasharray:none;stroke-dashoffset:0;stroke-opacity:1;visibility:visible;display:inline;overflow:visible;enable-background:accumulate"
       id="path6017"
       sodipodi:cx="125.06416"
       sodipodi:cy="236.06587"
       sodipodi:rx="12.301393"
       sodipodi:ry="12.301393"
       d="M 137.36556,236.06587 A 12.301393,12.301393 0 1 1 112.76277,236.06587 A 12.301393,12.301393 0 1 1 137.36556,236.06587 z"
       transform="translate(8.477707,-1.8529874)" />
    <path
       sodipodi:type="arc"
       style="fill:none;fill-opacity:1;fill-rule:nonzero;stroke:#020100;stroke-width:1.87311399000000001;stroke-linecap:butt;stroke-linejoin:miter;marker:none;marker-start:none;marker-mid:none;marker-end:none;stroke-miterlimit:4;stroke-dasharray:none;stroke-dashoffset:0;stroke-opacity:1;visibility:visible;display:inline;overflow:visible;enable-background:accumulate"
       id="path6019"
       sodipodi:cx="125.06416"
       sodipodi:cy="236.06587"
       sodipodi:rx="12.301393"
       sodipodi:ry="12.301393"
       d="M 137.36556,236.06587 A 12.301393,12.301393 0 1 1 112.76277,236.06587 A 12.301393,12.301393 0 1 1 137.36556,236.06587 z"
       transform="translate(157.41308,-1.8529874)" />
    <path
       sodipodi:type="arc"
       style="fill:none;fill-opacity:1;fill-rule:nonzero;stroke:#000000;stroke-width:1.87311399000000001;stroke-linecap:butt;stroke-linejoin:miter;marker:none;marker-start:none;marker-mid:none;marker-end:none;stroke-miterlimit:4;stroke-dasharray:none;stroke-dashoffset:0;stroke-opacity:1;visibility:visible;display:inline;overflow:visible;enable-background:accumulate"
       id="path6021"
       sodipodi:cx="422.11392"
       sodipodi:cy="230.11919"
       sodipodi:rx="16.67193"
       sodipodi:ry="16.67193"
       d="M 438.78585,230.11919 A 16.67193,16.67193 0 1 1 405.44199,230.11919 A 16.67193,16.67193 0 1 1 438.78585,230.11919 z"
       transform="translate(2.6155899,4.0936984)" />
    <path
       style="fill:#000000;fill-opacity:1;fill-rule:nonzero;stroke:none;stroke-width:1.87311399000000001;stroke-linecap:butt;stroke-linejoin:miter;marker:none;stroke-miterlimit:4;stroke-dasharray:none;stroke-dashoffset:0;stroke-opacity:1;visibility:visible;display:inline;overflow:visible;enable-background:accumulate"
       d="M 423.80764,210.29101 L 423.80764,217.60351 C 424.11732,217.58635 424.4312,217.54101 424.74514,217.54101 C 425.06488,217.54101 425.36732,217.58572 425.68264,217.60351 L 425.68264,210.29101 L 423.80764,210.29101 z M 417.43264,213.69726 L 415.68264,214.41601 L 417.62014,219.16601 C 418.18962,218.89592 418.76747,218.65245 419.37014,218.44726 L 417.43264,213.69726 z M 432.33889,213.82226 L 430.33889,218.54101 C 430.92398,218.75083 431.50485,218.98843 432.05764,219.25976 L 434.05764,214.54101 L 432.33889,213.82226 z M 408.49514,216.63476 L 407.15139,217.97851 L 412.30764,223.13476 C 412.72155,222.67159 413.18874,222.23674 413.65139,221.82226 L 408.49514,216.63476 z M 440.99514,216.63476 L 435.83889,221.79101 C 436.30508,222.20761 436.73454,222.66879 437.15139,223.13476 L 442.30764,217.97851 L 440.99514,216.63476 z M 405.05764,224.88476 L 404.33889,226.60351 L 409.05764,228.60351 C 409.26929,228.01334 409.50218,227.44206 409.77639,226.88476 L 405.05764,224.88476 z M 444.55764,225.16601 L 439.77639,227.10351 C 440.04753,227.67467 440.2893,228.24894 440.49514,228.85351 L 445.24514,226.91601 L 444.55764,225.16601 z M 400.80764,233.29101 L 400.80764,235.16601 L 408.12014,235.16601 C 408.10235,234.85069 408.05764,234.54825 408.05764,234.22851 C 408.05764,233.91457 408.10298,233.60069 408.12014,233.29101 L 400.80764,233.29101 z M 441.37014,233.29101 C 441.38727,233.60045 441.40139,233.91481 441.40139,234.22851 C 441.40139,234.54801 441.3879,234.85093 441.37014,235.16601 L 448.65139,235.16601 L 448.65139,233.29101 L 441.37014,233.29101 z M 408.96389,239.60351 L 404.21389,241.54101 L 404.93264,243.29101 L 409.68264,241.35351 C 409.41395,240.78836 409.16865,240.20143 408.96389,239.60351 z M 440.40139,239.82226 C 440.1907,240.40978 439.95535,240.98606 439.68264,241.54101 L 444.43264,243.54101 L 445.15139,241.82226 L 440.40139,239.82226 z M 412.30764,245.32226 L 407.15139,250.47851 L 408.49514,251.79101 L 413.65139,246.63476 C 413.18543,246.21791 412.72424,245.78845 412.30764,245.32226 z M 437.15139,245.32226 C 436.73651,245.78602 436.30265,246.21988 435.83889,246.63476 L 440.99514,251.79101 L 442.30764,250.47851 L 437.15139,245.32226 z M 417.40139,249.16601 L 415.40139,253.91601 L 417.12014,254.63476 L 419.12014,249.88476 C 418.52736,249.67218 417.96099,249.4417 417.40139,249.16601 z M 431.87014,249.25976 C 431.30329,249.52951 430.71998,249.77309 430.12014,249.97851 L 432.05764,254.72851 L 433.80764,254.04101 L 431.87014,249.25976 z M 423.80764,250.85351 L 423.80764,258.13476 L 425.68264,258.13476 L 425.68264,250.85351 C 425.36756,250.87127 425.06464,250.88476 424.74514,250.88476 C 424.43144,250.88476 424.11708,250.87064 423.80764,250.85351 z"
       id="path6023" />
    <path
       style="fill:#000000;fill-opacity:1;fill-rule:nonzero;stroke:none;stroke-width:3.87492990000000015;stroke-linecap:butt;stroke-linejoin:miter;marker:none;stroke-miterlimit:4;stroke-dasharray:none;stroke-dashoffset:0;stroke-opacity:1;visibility:visible;display:inline;overflow:visible;enable-background:accumulate"
       d="M 164.60729,149.37491 C 151.2244,159.78265 141.6195,172.27709 134.28024,187.75 L 136.49899,187.75 C 143.46223,173.39672 153.54649,160.84589 165.87399,150.96875 L 164.60729,149.37491 z"
       id="path6107"
       sodipodi:nodetypes="ccccc" />
    <path
       style="fill:#000000;fill-opacity:1;fill-rule:evenodd;stroke:none;stroke-width:1px;stroke-linecap:butt;stroke-linejoin:miter;stroke-opacity:1;display:inline"
       d="M 133.72725,190.03732 C 142.46917,184.77708 142.52222,184.74516 142.52222,184.74516 L 133.58292,179.79747 L 133.72725,190.03732 z"
       id="path6118"
       sodipodi:nodetypes="cccc" />
    <path
       style="fill:#020100;fill-opacity:1;fill-rule:nonzero;stroke:none;stroke-width:2;stroke-linecap:butt;stroke-linejoin:miter;marker:none;stroke-miterlimit:4;stroke-dasharray:none;stroke-dashoffset:0;stroke-opacity:1;visibility:visible;display:inline;overflow:visible;enable-background:accumulate"
       d="M 430.59274,278.78125 C 427.31806,293.38784 422.45547,307.3938 416.21774,320.625 L 418.19473,321.64158 C 424.98582,306.74537 429.01168,295.05387 432.62399,278.78125 L 430.59274,278.78125 z"
       id="path6122"
       sodipodi:nodetypes="ccccc" />
    <path
       style="fill:#020100;fill-opacity:1;fill-rule:evenodd;stroke:none;stroke-width:1px;stroke-linecap:butt;stroke-linejoin:miter;stroke-opacity:1;display:inline"
       d="M 432.51598,275.31844 C 425.39323,282.62307 425.34999,282.66741 425.34999,282.66741 L 435.25158,285.18717 L 432.51598,275.31844 z"
       id="path6131"
       sodipodi:nodetypes="cccc" />
    <path
       style="fill:#000000;fill-opacity:1;fill-rule:evenodd;stroke:none;stroke-width:1px;stroke-linecap:butt;stroke-linejoin:miter;stroke-opacity:1;display:inline"
       d="M 110.24057,239.35028 C 118.98248,234.09004 119.03554,234.05812 119.03554,234.05812 L 110.09624,229.11042 L 110.24057,239.35028 z"
       id="path6229"
       sodipodi:nodetypes="cccc" />
    <text
       xml:space="preserve"
       style="font-size:12px;font-style:normal;font-variant:normal;font-weight:normal;font-stretch:normal;text-align:start;line-height:100%;writing-mode:lr-tb;text-anchor:start;fill:#000000;fill-opacity:1;stroke:none;stroke-width:1px;stroke-linecap:butt;stroke-linejoin:miter;stroke-opacity:1;display:inline;font-family:Century Schoolbook L;-inkscape-font-specification:Century Schoolbook L"
       x="43.888706"
       y="231.24399"
       id="text6231"
       sodipodi:linespacing="100%"><tspan
         sodipodi:role="line"
         x="43.888706"
         y="231.24399"
         id="tspan6235">Inhabited</tspan></text>
    <text
       xml:space="preserve"
       style="font-size:12px;font-style:normal;font-variant:normal;font-weight:normal;font-stretch:normal;text-align:start;line-height:100%;writing-mode:lr-tb;text-anchor:start;fill:#000000;fill-opacity:1;stroke:none;stroke-width:1px;stroke-linecap:butt;stroke-linejoin:miter;stroke-opacity:1;display:inline;font-family:Century Schoolbook L;-inkscape-font-specification:Century Schoolbook L"
       x="43.542068"
       y="245.55687"
       id="text6239"
       sodipodi:linespacing="100%"><tspan
         sodipodi:role="line"
         x="43.542068"
         y="245.55687"
         id="tspan6241">Side</tspan></text>
    <path
       style="fill:#000000;fill-opacity:1;fill-rule:evenodd;stroke:none;stroke-width:1px;stroke-linecap:butt;stroke-linejoin:miter;stroke-opacity:1;display:inline"
       d="M 264.60314,183.71799 C 267.61541,193.46567 267.63369,193.52483 267.63369,193.52483 L 274.57925,186.03153 L 264.60314,183.71799 z"
       id="path6255"
       sodipodi:nodetypes="cccc" />
    <path
       style="fill:#000000;fill-opacity:1;fill-rule:nonzero;stroke:none;stroke-width:7.56057357999999891;stroke-linecap:butt;stroke-linejoin:miter;marker:none;stroke-miterlimit:4;stroke-dasharray:none;stroke-dashoffset:0;stroke-opacity:1;visibility:visible;display:inline;overflow:visible;enable-background:accumulate"
       d="M 268.49899,186.1875 L 267.18649,187.875 C 270.72672,190.53113 273.93405,193.58632 276.78024,196.96875 L 278.46774,195.59375 C 275.51614,192.08214 272.17032,188.9466 268.49899,186.1875 z"
       id="path6243" />
    <path
       sodipodi:type="arc"
       style="fill:none;fill-opacity:1;fill-rule:nonzero;stroke:none;stroke-width:2;stroke-linecap:butt;stroke-linejoin:miter;marker:none;marker-start:none;marker-mid:none;marker-end:none;stroke-miterlimit:4;stroke-dasharray:none;stroke-dashoffset:0;stroke-opacity:1;visibility:visible;display:inline;overflow:visible;enable-background:accumulate"
       id="path6134"
       sodipodi:cx="259.66379"
       sodipodi:cy="219.64183"
       sodipodi:rx="205.11571"
       sodipodi:ry="205.11571"
       d="M 464.7795,219.64183 A 205.11571,205.11571 0 1 1 54.54808,219.64183 A 205.11571,205.11571 0 1 1 464.7795,219.64183 z"
       transform="matrix(0.4284182,0.8057374,0.8057374,-0.4284182,-55.172557,117.55039)" />
    <path
       transform="matrix(0.9465541,0,0,0.9465541,21.238275,18.909121)"
       style="font-size:16px;font-style:normal;font-variant:normal;font-weight:normal;font-stretch:normal;text-align:start;line-height:100%;writing-mode:lr-tb;text-anchor:start;fill:#000000;fill-opacity:1;stroke:none;stroke-width:1px;stroke-linecap:butt;stroke-linejoin:miter;stroke-opacity:1;font-family:Century Schoolbook L;-inkscape-font-specification:Century Schoolbook L"
       d="M 320.54985,384.67382 C 319.31507,385.38311 318.4838,386.37727 318.08379,387.64035 C 317.58133,389.23906 317.81772,391.09608 318.72625,392.6777 C 320.42377,395.63284 323.78207,396.69295 326.48748,395.13889 C 329.20676,393.57685 329.96903,390.14977 328.26354,387.18075 C 326.574,384.23949 323.21364,383.14366 320.54985,384.67382 M 320.91054,385.33386 C 321.8401,384.7999 322.8641,384.78369 323.80188,385.25986 C 324.78542,385.78354 325.4599,386.54012 326.43219,388.23274 C 327.40448,389.92536 327.71026,390.87527 327.6751,392.00258 C 327.62193,393.06643 327.09796,393.92097 326.11291,394.48681 C 325.12786,395.05265 324.1257,395.07476 323.17995,394.58473 C 322.1666,394.04126 321.52193,393.30446 320.5337,391.58409 C 319.57736,389.91923 319.27157,388.96931 319.30673,387.842 C 319.35783,386.74244 319.87,385.93158 320.91054,385.33386 M 330.32717,383.81149 L 328.10871,385.4762 L 328.48589,386.05159 L 328.96761,385.73581 C 329.46272,385.41125 329.60441,385.45229 329.98159,386.02768 L 332.07804,389.22579 L 332.42891,389.76104 C 332.77978,390.29629 332.69399,390.48645 331.83759,391.04784 L 331.78407,391.08292 L 332.09985,391.56465 L 335.48529,389.3454 L 335.16951,388.86367 L 335.11598,388.89876 C 334.24621,389.46892 334.03761,389.47174 333.68674,388.9365 L 333.33587,388.40125 L 332.42361,387.0096 C 331.9938,386.35392 331.69274,385.69037 331.63818,385.28611 C 331.52446,384.49975 331.85469,383.6902 332.43008,383.31302 C 332.77799,383.08495 333.311,383.02252 333.68715,383.15857 C 334.07208,383.308 334.43767,383.66141 334.85871,384.30371 L 336.27974,386.47146 L 336.63061,387.00671 C 336.98148,387.54196 336.89568,387.73212 336.02591,388.30228 L 335.97238,388.33737 L 336.28816,388.81909 L 339.67361,386.59984 L 339.35783,386.11812 L 339.3043,386.1532 C 338.44791,386.7146 338.23931,386.71742 337.88844,386.18217 L 337.53757,385.64692 L 336.16041,383.54607 C 335.52884,382.58263 335.33081,382.36808 334.79171,382.07101 C 334.03613,381.64801 333.09931,381.70731 332.30982,382.22484 C 331.45342,382.78623 331.04751,383.62626 331.03768,384.89537 L 330.32717,383.81149 M 343.81587,379.13789 C 342.41934,377.18598 340.32254,376.61197 338.74263,377.75835 C 337.08502,378.96111 336.88483,381.30064 338.29431,383.24315 C 339.60982,385.05616 341.68096,385.43134 343.42922,384.16281 C 344.65948,383.27013 345.09845,382.02251 344.73673,380.407 L 344.10494,380.48982 C 344.29752,381.87224 344.03551,382.6554 343.16786,383.28497 C 342.5074,383.76419 341.82152,383.82696 341.07137,383.50147 C 340.55638,383.2821 340.1239,382.90402 339.62004,382.18237 L 343.81587,379.13789 M 339.22894,381.61612 C 338.93764,381.21466 338.78272,380.89217 338.64912,380.43561 C 338.35728,379.46127 338.49918,378.78503 339.12078,378.334 C 339.91074,377.76081 340.92676,378.0713 341.67848,379.10731 C 341.95098,379.48286 341.90961,379.67103 341.4952,379.97172 L 339.22894,381.61612 M 352.27292,374.36544 L 348.2858,372.33836 C 348.14436,372.26889 348.04799,372.20346 347.9967,372.14207 C 347.81204,371.92106 347.88757,371.712 348.30503,371.3632 L 348.56288,371.14777 L 348.19357,370.70575 L 345.27132,373.14733 L 345.64063,373.58935 L 345.77569,373.47651 C 346.1686,373.14823 346.53323,373.13547 347.16459,373.44194 L 352.95144,376.30048 L 353.10177,376.90462 C 353.43941,378.20709 353.40604,379.34001 353.01313,379.66829 C 352.90263,379.76062 352.77565,379.78331 352.71409,379.70964 C 352.69358,379.68509 352.67508,379.63799 352.64632,379.57862 C 352.59083,379.43734 352.52306,379.30632 352.44099,379.20809 C 352.17426,378.88885 351.70922,378.88126 351.35315,379.17876 C 350.9234,379.53782 350.88317,380.11352 351.25249,380.55554 C 351.70387,381.09579 352.52127,381.10089 353.15974,380.56743 C 353.81049,380.02372 354.09629,379.24284 354.03345,378.16946 C 353.98322,377.33574 353.81843,376.63943 353.21996,374.82515 L 351.72673,370.19316 C 351.4079,369.18771 351.46057,368.72671 351.92715,368.33687 L 352.00082,368.27532 L 351.63151,367.8333 L 349.17583,369.88505 L 349.54515,370.32707 L 349.7416,370.16293 C 350.20818,369.7731 350.51748,369.74402 350.78421,370.06326 C 350.8868,370.18604 350.98332,370.37644 351.07177,370.65698 L 352.27292,374.36544 M 359.54538,365.80927 C 357.93771,364.02723 355.78958,363.69326 354.34897,365.01044 C 352.83752,366.39239 352.90234,368.73958 354.52182,370.51082 C 356.03333,372.16397 358.13355,372.30327 359.72767,370.84574 C 360.84945,369.82007 361.14498,368.53092 360.60344,366.96648 L 359.98502,367.12 C 360.33221,368.47189 360.16016,369.27959 359.36901,370.00296 C 358.76679,370.55358 358.09236,370.69327 357.3103,370.45442 C 356.77385,370.29451 356.30151,369.96759 355.71951,369.30734 L 359.54538,365.80927 M 355.26707,368.78879 C 354.93237,368.42274 354.74208,368.11977 354.55786,367.68117 C 354.15804,366.74595 354.22281,366.05802 354.7896,365.53979 C 355.50991,364.8812 356.55446,365.07518 357.41818,366.01983 C 357.73128,366.36227 357.71137,366.55391 357.33351,366.8994 L 355.26707,368.78879 M 363.85993,359.33665 C 363.1466,358.62446 362.65992,358.38726 362.06034,358.44431 C 361.39289,358.52404 360.68045,358.92059 359.95695,359.64525 C 358.69083,360.9134 358.35266,362.45234 359.1679,363.26627 C 359.59816,363.69585 360.12992,363.70673 360.52558,363.31044 C 360.87602,362.95943 360.89825,362.46161 360.55856,362.12247 C 360.41137,361.97551 360.19633,361.87386 359.92476,361.82882 C 359.77767,361.81763 359.7324,361.79504 359.69843,361.76112 C 359.46065,361.52372 359.72033,360.85601 360.26296,360.31251 C 360.6134,359.96151 361.12229,359.67826 361.473,359.66666 C 361.86896,359.6324 362.21984,359.82445 362.72936,360.33316 L 363.17095,360.77404 C 362.18778,362.16642 361.91661,362.61918 361.57782,363.38879 C 360.96795,364.72429 361.02532,365.73117 361.73866,366.44336 C 362.54258,367.24599 363.70779,367.1206 364.7026,366.1242 C 365.48261,365.34293 365.86646,364.32438 365.7751,363.26097 C 366.53344,363.65634 367.04251,363.59936 367.57382,363.06719 C 368.08253,362.55767 368.28549,361.69766 367.95713,361.36983 C 367.87787,361.29069 367.76473,361.29079 367.70821,361.3474 C 367.66299,361.39269 367.62909,361.44929 367.58393,361.56246 C 367.47099,361.81145 367.4371,361.86805 367.34666,361.95863 C 367.03013,362.27567 366.70195,362.17411 366.13581,361.60888 L 363.85993,359.33665 M 364.17868,361.78015 C 364.85804,362.45843 364.98265,362.65066 365.08486,363.13707 C 365.22119,363.83841 364.98425,364.64188 364.49815,365.12876 C 363.98944,365.63828 363.23143,365.6502 362.72191,365.14149 C 362.24635,364.6667 362.14406,364.08978 362.40369,363.35418 C 362.59561,362.84491 362.92327,362.29028 363.65783,361.26014 L 364.17868,361.78015 M 365.31675,354.40549 L 363.5338,356.61282 L 364.04117,357.0775 L 364.48423,356.59373 C 364.88407,356.15716 365.0315,356.16201 365.53887,356.62668 L 368.35888,359.20942 L 368.83085,359.64168 C 369.30282,360.07393 369.26654,360.27937 368.56412,361.04632 L 368.5209,361.09352 L 368.94567,361.48255 L 371.83098,358.33216 L 371.40621,357.94313 L 371.20089,358.16731 C 370.50928,358.92246 370.30781,358.97661 369.83584,358.54435 L 369.36388,358.11209 L 369.24588,358.00403 C 368.36095,357.19355 367.61549,356.20707 367.2131,355.29612 C 366.8117,354.40779 366.81334,353.67161 367.20822,353.12201 C 367.24571,353.4601 367.32048,353.61537 367.54467,353.82069 C 367.92224,354.16649 368.44217,354.14366 368.78798,353.76609 C 369.17701,353.34131 369.12859,352.75456 368.64482,352.3115 C 368.07846,351.79279 367.33347,351.84816 366.76073,352.47351 C 366.07992,353.21686 366.08733,354.41695 366.77985,355.74549 L 365.31675,354.40549 M 368.37646,350.21156 L 368.60688,349.94546 L 366.76649,347.69569 C 366.71649,347.63123 366.65601,347.57886 366.58344,347.51602 C 366.28105,347.25417 365.8748,347.28336 365.61296,347.58575 C 365.36159,347.87604 365.3803,348.29438 365.67059,348.54575 C 365.74317,348.60859 365.80364,348.66096 365.88669,348.71171 L 368.37646,350.21156 M 373.63505,344.42921 L 373.28075,344.86288 L 373.43324,345.58663 C 372.72188,345.74925 372.20876,346.07384 371.70262,346.69336 C 370.8118,347.78373 370.94331,349.08951 372.02129,349.97021 C 372.50452,350.36501 373.04501,350.53799 373.51552,350.46786 C 374.00855,350.39546 374.36529,350.2117 375.14613,349.60999 L 375.83134,349.07477 C 376.86647,348.28825 377.39773,348.14378 377.89335,348.54869 C 378.4757,349.02447 378.46955,349.86654 377.87229,350.59759 C 377.02197,351.63839 375.7455,351.83518 374.26349,351.12026 L 373.85857,351.61588 L 376.20039,353.52912 L 376.55469,353.09545 L 376.40098,352.24674 C 377.22491,352.07279 377.88882,351.66479 378.39496,351.04526 C 379.38701,349.83099 379.28918,348.4081 378.13686,347.46667 C 377.59168,347.02126 377.02868,346.85054 376.46026,346.96465 C 375.9571,347.04944 375.65552,347.21627 374.87694,347.84049 L 374.2345,348.34867 C 373.52905,348.90867 373.52905,348.90867 373.22293,349.03047 C 372.87632,349.20184 372.48452,349.15033 372.21193,348.92763 C 371.7163,348.52271 371.74165,347.7583 372.29841,347.07682 C 372.68309,346.60598 373.15798,346.35347 373.77596,346.27986 C 374.27126,346.22997 374.63042,346.29613 375.36236,346.56354 L 375.71666,346.12987 L 373.63505,344.42921 M 378.76663,337.90736 L 377.25893,340.31111 L 377.81797,340.71213 L 378.20034,340.17909 C 378.5454,339.69806 378.69236,339.68534 379.2514,340.08636 L 382.35863,342.31528 L 382.87867,342.68832 C 383.39871,343.06136 383.38713,343.26966 382.78094,344.11472 L 382.74363,344.16672 L 383.21167,344.50246 L 385.70172,341.0312 L 385.23369,340.69547 L 385.05649,340.94249 C 384.45963,341.77455 384.26603,341.85227 383.74599,341.47923 L 383.22595,341.10619 L 383.09595,341.01293 C 382.12087,340.31348 381.26336,339.42268 380.75546,338.56608 C 380.25123,337.7318 380.16529,337.00065 380.49198,336.40798 C 380.56943,336.73921 380.66213,336.88448 380.90915,337.06167 C 381.32518,337.36011 381.8387,337.27558 382.13714,336.85955 C 382.47287,336.39152 382.355,335.81469 381.82196,335.43232 C 381.19792,334.98467 380.4648,335.12827 379.97052,335.81732 C 379.38298,336.63638 379.53309,337.82707 380.37874,339.06379 L 378.76663,337.90736 M 388.20251,330.87347 C 386.20622,329.54115 384.04189,329.74531 382.96914,331.37611 C 381.84364,333.08711 382.48328,335.3464 384.48836,336.66534 C 386.35977,337.89636 388.42983,337.51528 389.61688,335.7107 C 390.45221,334.44082 390.42188,333.11857 389.5125,331.73518 L 388.95077,332.03597 C 389.61954,333.26108 389.65125,334.0863 389.06212,334.9819 C 388.61367,335.66363 387.99425,335.96477 387.17748,335.92543 C 386.61819,335.90225 386.07999,335.70143 385.35358,335.20445 L 388.20251,330.87347 M 384.78758,334.81299 C 384.3732,334.5404 384.11429,334.29349 383.82794,333.91361 C 383.21056,333.10532 383.10428,332.42257 383.52635,331.78094 C 384.06272,330.96554 385.12291,330.89688 386.19228,331.60032 C 386.57993,331.85532 386.60774,332.04597 386.32636,332.47372 L 384.78758,334.81299 M 392.27763,327.34069 L 387.70163,326.73671 C 387.59459,326.72879 387.45451,326.68256 387.37205,326.63341 C 387.1384,326.49415 387.16243,326.26633 387.49829,325.70282 L 387.61297,325.51041 L 387.11819,325.21551 L 385.18495,328.45908 L 385.67974,328.75398 L 385.74527,328.64403 C 386.05655,328.12176 386.29493,328.00307 386.87691,328.08917 L 393.81095,329.01826 L 394.09766,328.53722 L 390.43674,323.7103 C 389.75082,322.79857 389.59535,322.18437 389.90664,321.6621 L 389.9394,321.60712 L 389.44462,321.31222 L 387.80629,324.06102 L 388.30107,324.35592 L 388.41575,324.1635 C 388.70246,323.68246 389.02303,323.51963 389.33914,323.70803 C 389.49033,323.79814 389.67746,323.98418 389.84266,324.17578 L 392.27763,327.34069 M 391.0491,317.80463 C 390.12489,319.52397 390.93378,321.70263 392.90679,322.7632 C 394.83753,323.80104 397.115,323.28142 398.02406,321.59027 C 398.93312,319.89911 398.11014,317.71288 396.16532,316.66746 C 394.23458,315.62962 391.94301,316.14166 391.0491,317.80463 M 391.6551,318.13038 C 392.18538,317.14387 393.50962,317.14726 395.36989,318.14722 C 397.24425,319.15477 397.9635,320.24983 397.41807,321.26452 C 396.87263,322.27921 395.56249,322.2834 393.70222,321.28344 C 391.78558,320.25317 391.08694,319.18735 391.6551,318.13038 M 390.55469,309.7947 L 389.40234,312.52685 L 390.01927,312.83138 L 390.36629,312.12836 C 390.62124,311.61186 390.76417,311.57535 391.3811,311.87987 L 398.69823,315.49169 L 399.27212,315.77497 C 399.84601,316.05825 399.86854,316.26564 399.4153,317.18387 L 399.36572,317.2843 L 399.88223,317.53925 L 401.71646,313.8233 L 401.19996,313.56835 L 401.15038,313.66878 C 400.69006,314.60135 400.51172,314.7096 399.93783,314.42632 L 399.36394,314.14304 L 390.55469,309.7947 M 404.73866,307.47258 L 405.82146,304.76706 L 405.19301,304.48706 L 405.03022,304.85244 C 404.67209,305.65627 404.48846,305.71458 403.5531,305.29784 L 398.43783,303.01879 L 397.37442,305.83804 L 398.00287,306.11804 L 398.33496,305.37268 C 398.57589,304.83192 398.71726,304.78981 399.34571,305.06981 L 401.14336,305.87073 C 401.97641,306.24189 402.41964,306.54446 402.80426,306.97857 C 403.31058,307.572 403.43011,308.3259 403.11104,309.04204 C 402.90919,309.4951 402.57912,309.80347 402.20217,309.86323 C 401.83983,309.92951 401.68066,309.89362 400.87683,309.53548 L 396.41924,307.54945 L 395.44048,310.17871 L 396.06893,310.45871 L 396.31637,309.90334 C 396.5573,309.36258 396.69867,309.32047 397.32712,309.60047 L 400.48397,311.00697 C 401.22933,311.33906 401.59153,311.43037 402.02535,311.36091 C 402.80038,311.23328 403.44908,310.68152 403.83977,309.80462 C 404.26954,308.84003 404.17446,307.99192 403.52561,306.93212 L 404.73866,307.47258 M 400.10813,298.86927 L 397.16219,297.70407 L 396.92092,298.31409 C 398.79627,299.2279 399.51931,300.27095 399.13192,301.51142 L 399.71218,301.74092 L 400.19473,300.52089 L 403.98874,302.02152 C 405.03023,302.43346 405.41397,302.55082 405.81502,302.53739 C 406.53407,302.54649 407.11167,302.0867 407.45299,301.22375 C 407.6825,300.64349 407.70404,300.06701 407.51206,299.59534 C 407.23015,298.91603 406.5534,298.32145 405.73509,297.99778 C 405.64582,297.96247 405.54167,297.92128 405.387,297.87731 L 405.13984,298.50221 C 406.46124,299.07647 406.99265,299.73402 406.70429,300.46306 C 406.56894,300.80527 406.2727,301.03222 405.97858,301.03633 C 405.73497,301.04321 405.34535,300.94072 404.80973,300.72887 L 400.7479,299.12231 L 401.61297,296.93518 L 400.9732,296.68213 L 400.10813,298.86927 M 402.28706,293.07771 L 401.43023,295.96646 L 402.07727,296.2003 L 402.35461,295.43287 C 402.55582,294.87612 402.69378,294.8239 403.34082,295.05773 L 406.93718,296.35744 L 407.53908,296.57496 C 408.14098,296.79248 408.18649,296.99607 407.83845,297.95911 L 407.80039,298.06444 L 408.3421,298.26021 L 409.75056,294.36291 L 409.20885,294.16714 L 409.17078,294.27247 C 408.81731,295.25056 408.65216,295.37802 408.05026,295.16049 L 407.44836,294.94297 L 402.28706,293.07771 M 398.28465,292.43086 C 398.11063,292.91238 398.36047,293.44501 398.84199,293.61902 C 399.30846,293.7876 399.85614,293.5432 400.02472,293.07673 C 400.20417,292.58016 399.95433,292.04753 399.47281,291.87351 C 398.99129,291.6995 398.45866,291.94934 398.28465,292.43086 M 403.82806,287.7865 C 403.22845,289.64412 404.41632,291.64158 406.54802,292.32965 C 408.63404,293.00297 410.78077,292.08186 411.37055,290.25469 C 411.96032,288.42752 410.75723,286.42515 408.65598,285.74691 C 406.56996,285.07358 404.408,285.98978 403.82806,287.7865 M 404.4828,287.99783 C 404.82683,286.93198 406.13004,286.69693 408.13993,287.34568 C 410.16505,287.99935 411.06968,288.94705 410.71581,290.04335 C 410.36195,291.13966 409.07396,291.37962 407.06407,290.73087 C 404.99328,290.06246 404.11419,289.13982 404.4828,287.99783 M 406.03414,281.33727 L 405.47886,284.05471 L 406.14284,284.23494 L 406.29373,283.67906 C 406.44881,283.10774 406.58205,283.04443 407.24603,283.22466 L 410.93648,284.22643 L 411.55413,284.39409 C 412.17177,284.56175 412.23376,284.76094 411.9655,285.74918 L 411.94874,285.81095 L 412.50462,285.96184 L 413.56507,282.05521 L 413.00918,281.90432 L 412.99242,281.96608 C 412.71997,282.96976 412.56578,283.11027 411.94813,282.94261 L 411.33048,282.77496 L 409.72459,282.33904 C 408.96797,282.13366 408.30246,281.83695 407.99341,281.57069 C 407.38658,281.05781 407.09652,280.23302 407.27676,279.56905 C 407.38573,279.16757 407.7431,278.76721 408.11479,278.61942 C 408.50193,278.47582 409.00995,278.49767 409.75113,278.69886 L 412.25261,279.37789 L 412.87026,279.54555 C 413.4879,279.71321 413.54989,279.9124 413.27744,280.91608 L 413.26067,280.97784 L 413.81656,281.12874 L 414.87701,277.22211 L 414.32112,277.07121 L 414.30436,277.13298 C 414.0361,278.12122 413.88191,278.26173 413.26426,278.09407 L 412.64661,277.92641 L 410.22234,277.26835 C 409.11057,276.96656 408.82005,276.93744 408.2196,277.07287 C 407.37364,277.2577 406.71208,277.92365 406.46478,278.83469 C 406.19652,279.82292 406.45018,280.72073 407.28488,281.67678 L 406.03414,281.33727"
       id="text6136" />
    <g
       id="g6190"
       transform="matrix(-0.5905277,-0.8433609,0.8433609,-0.5905277,168.64984,563.46901)">
      <path
         style="font-size:15.54071617px;font-style:normal;font-variant:normal;font-weight:normal;font-stretch:normal;text-indent:0;text-align:start;text-decoration:none;line-height:100%;letter-spacing:normal;word-spacing:normal;text-transform:none;direction:ltr;block-progression:tb;writing-mode:lr-tb;text-anchor:start;fill:#000000;fill-opacity:1;fill-rule:nonzero;stroke:none;stroke-width:0;stroke-linecap:butt;stroke-linejoin:miter;stroke-miterlimit:0;stroke-dashoffset:0;stroke-opacity:1;marker:none;marker-start:none;marker-mid:none;marker-end:none;visibility:visible;display:inline;overflow:visible;enable-background:accumulate;font-family:Century Schoolbook L;-inkscape-font-specification:Century Schoolbook L"
         d="M 328.67285,242.20112 L 328.70225,241.51796 L 327.91709,241.32862 C 326.93209,241.08401 326.82875,240.95512 326.87018,239.99249 L 327.01985,236.51459 C 328.09164,237.63401 328.40233,238.00515 329.13588,239.03225 C 330.16192,240.49191 330.67929,241.12083 331.12971,241.49798 C 331.79148,242.02422 332.47948,242.30271 333.22474,242.33478 C 334.97922,242.41029 336.31586,240.99007 336.40272,238.97165 C 336.48758,236.9998 335.27989,235.42343 333.6341,235.35261 C 332.65594,235.31051 331.96693,235.77862 331.93486,236.52389 C 331.91014,237.09836 332.28159,237.50322 332.84054,237.52728 C 333.2287,237.54398 333.59516,237.34198 333.74959,237.00642 C 334.02274,236.44263 334.0396,236.41225 334.24144,236.42093 C 334.47434,236.43096 334.82476,236.60159 335.07936,236.83031 C 335.52844,237.23852 335.77985,237.90265 335.74845,238.63239 C 335.69366,239.90555 334.86841,240.64779 333.5642,240.59167 C 332.41525,240.54222 331.39837,239.95403 330.08751,238.60655 L 329.16429,237.64907 L 327.9122,236.38189 C 327.28415,235.79487 326.93907,235.50003 326.06794,234.77812 L 325.6332,234.75941 L 325.33186,241.76179 L 328.67285,242.20112 M 335.39356,249.95118 L 328.78868,243.76021 L 327.92572,243.64755 L 327.3604,247.97774 L 326.55908,247.87313 L 326.11219,247.81478 C 325.46497,247.73029 325.40603,247.58154 325.56899,246.33333 L 325.59112,246.16382 L 324.86685,246.06927 L 324.2794,250.56897 L 325.00367,250.66353 L 325.01171,250.60189 C 325.17467,249.35368 325.26983,249.22505 325.91704,249.30955 L 326.36393,249.36789 L 327.16525,249.47251 L 326.92182,251.33711 L 327.78478,251.44977 L 328.02821,249.58517 L 332.23512,250.13439 C 334.16136,250.38587 334.16137,250.38587 335.30705,250.61381 L 335.39356,249.95118 M 328.22335,248.0904 L 328.66595,244.70021 L 332.89257,248.69998 L 328.22335,248.0904 M 333.58295,261.68909 L 334.17246,258.86996 L 333.52763,258.69459 L 333.33188,259.4144 C 333.18098,259.96926 333.05154,260.03069 332.40671,259.85532 L 324.75872,257.77542 L 324.15888,257.6123 C 323.55904,257.44917 323.49892,257.25566 323.75993,256.29591 L 323.77624,256.23593 L 323.23638,256.08911 L 322.20459,259.88312 L 322.74445,260.02993 L 322.76076,259.96995 C 323.02585,258.99521 323.17568,258.8588 323.77552,259.02193 L 324.37537,259.18505 L 325.91996,259.60511 C 326.66976,259.80902 327.31604,260.09752 327.61609,260.35627 C 328.20527,260.85471 328.48662,261.65596 328.31126,262.30079 C 328.20523,262.69069 327.85794,263.0794 327.49684,263.22277 C 327.10576,263.35799 326.62733,263.34062 325.89252,263.14078 L 323.47815,262.48419 L 322.87831,262.32106 C 322.27847,262.15793 322.21836,261.96442 322.48344,260.98968 L 322.49976,260.9297 L 321.9599,260.78288 L 320.9281,264.57688 L 321.46796,264.7237 L 321.48428,264.66372 C 321.74528,263.70397 321.89512,263.56756 322.49496,263.73069 L 323.0948,263.89382 L 325.44918,264.5341 C 326.5289,264.82773 326.81106,264.85615 327.39434,264.72488 C 328.2161,264.54574 328.8549,263.9142 329.09959,263.01444 C 329.3606,262.05469 329.11055,261.19754 328.28934,260.24947 L 333.58295,261.68909 M 326.47371,271.10637 C 327.12974,269.32752 326.05667,267.34164 324.01536,266.58881 C 322.0178,265.85211 319.89769,266.66036 319.25241,268.41005 C 318.60713,270.15973 319.69479,272.15099 321.70693,272.89307 C 323.70449,273.62976 325.83918,272.82689 326.47371,271.10637 M 325.84674,270.87514 C 325.47032,271.89579 324.19621,272.0719 322.27155,271.36209 C 320.33232,270.6469 319.49222,269.69108 319.87939,268.64127 C 320.26655,267.59146 321.52609,267.40998 323.45074,268.11979 C 325.43372,268.8511 326.25004,269.78159 325.84674,270.87514 M 315.32825,277.8995 L 314.21949,280.50381 L 314.82382,280.78901 L 314.98964,280.43765 C 315.35443,279.66467 315.53398,279.61193 316.43346,280.03642 L 321.35245,282.35784 L 322.44478,279.64268 L 321.84045,279.35747 L 321.50219,280.07424 C 321.25678,280.59425 321.1186,280.63215 320.51427,280.34694 L 318.7856,279.53113 C 317.9845,279.15307 317.56051,278.84987 317.19621,278.42018 C 316.71711,277.8332 316.617,277.09858 316.942,276.40993 C 317.14761,275.97424 317.47466,275.68179 317.84196,275.63174 C 318.19522,275.57505 318.34903,275.61327 319.12201,275.97807 L 323.40856,278.00102 L 324.41467,275.46856 L 323.81034,275.18336 L 323.5583,275.71742 C 323.31289,276.23743 323.17472,276.27533 322.57038,275.99012 L 319.53466,274.55748 C 318.8179,274.21921 318.46812,274.12288 318.04538,274.18114 C 317.29008,274.28867 316.64846,274.81072 316.25051,275.65398 C 315.81275,276.58156 315.88712,277.40714 316.49475,278.45001 L 315.32825,277.8995 M 318.78609,287.01307 L 320.01393,284.54567 L 319.43528,284.21142 L 319.11657,284.76316 C 318.82896,285.26107 318.68813,285.2874 318.10948,284.95315 L 314.89325,283.09535 L 314.35497,282.78442 C 313.81669,282.47349 313.808,282.27105 314.31326,281.39635 L 314.34435,281.34252 L 313.8599,281.06268 L 311.78445,284.6557 L 312.2689,284.93554 L 312.41659,284.67985 C 312.91408,283.81861 313.09378,283.72499 313.63206,284.03592 L 314.17034,284.34685 L 314.30491,284.42458 C 315.31419,285.00757 316.22809,285.78674 316.80081,286.56624 C 317.36785,287.3245 317.52072,288.02301 317.26153,288.62707 C 317.15505,288.3143 317.05157,288.18274 316.79589,288.03505 C 316.36526,287.78631 315.87697,287.91704 315.62822,288.34766 C 315.34839,288.83211 315.5174,289.37841 316.06913,289.69712 C 316.71507,290.07023 317.40998,289.86143 317.82196,289.14821 C 318.31168,288.30042 318.0529,287.16385 317.11743,286.04919 L 318.78609,287.01307 M 313.35479,295.87143 L 313.65955,295.4209 L 313.44867,294.73414 C 314.12256,294.51455 314.5905,294.15565 315.02588,293.51204 C 315.79215,292.37929 315.5506,291.12767 314.43072,290.37011 C 313.92871,290.03051 313.39073,289.9105 312.94172,290.01954 C 312.47113,290.13274 312.14213,290.34172 311.43947,290.99215 L 310.82351,291.56988 C 309.89104,292.42134 309.38978,292.60761 308.8749,292.2593 C 308.26991,291.85005 308.20213,291.03494 308.71588,290.27548 C 309.44731,289.19422 310.66487,288.8921 312.16106,289.45393 L 312.50936,288.93904 L 310.07653,287.29331 L 309.77176,287.74384 L 309.99476,288.55137 C 309.21297,288.79178 308.60646,289.24458 308.17109,289.88819 C 307.31775,291.14966 307.53696,292.51751 308.73406,293.32731 C 309.30044,293.71044 309.86,293.82629 310.39987,293.66614 C 310.87917,293.54007 311.1563,293.35229 311.85479,292.68029 L 312.43177,292.13246 C 313.06515,291.52898 313.06515,291.52898 313.3506,291.38436 C 313.67089,291.18825 314.05441,291.20377 314.33759,291.39534 C 314.85248,291.74364 314.89488,292.4853 314.41597,293.19327 C 314.08508,293.68241 313.64781,293.96825 313.05645,294.09356 C 312.5817,294.18518 312.22847,294.15263 311.49703,293.95803 L 311.19226,294.40856 L 313.35479,295.87143"
         id="text6173" />
      <path
         transform="matrix(0.483393,0,0,0.483393,100.89222,128.03956)"
         d="M 464.7795,219.64183 A 205.11571,205.11571 0 1 1 54.54808,219.64183 A 205.11571,205.11571 0 1 1 464.7795,219.64183 z"
         sodipodi:ry="205.11571"
         sodipodi:rx="205.11571"
         sodipodi:cy="219.64183"
         sodipodi:cx="259.66379"
         id="path6181"
         style="opacity:1;fill:none;fill-opacity:1;fill-rule:nonzero;stroke:none;stroke-width:3.8749299;stroke-linecap:butt;stroke-linejoin:miter;marker:none;marker-start:none;marker-mid:none;marker-end:none;stroke-miterlimit:4;stroke-dasharray:none;stroke-dashoffset:0;stroke-opacity:1;visibility:visible;display:inline;overflow:visible;enable-background:accumulate"
         sodipodi:type="arc" />
      <path
         transform="matrix(0.5751814,0,0,0.5751814,77.0581,107.87899)"
         d="M 464.7795,219.64183 A 205.11571,205.11571 0 1 1 54.54808,219.64183 A 205.11571,205.11571 0 1 1 464.7795,219.64183 z"
         sodipodi:ry="205.11571"
         sodipodi:rx="205.11571"
         sodipodi:cy="219.64183"
         sodipodi:cx="259.66379"
         id="path6188"
         style="opacity:1;fill:none;fill-opacity:1;fill-rule:nonzero;stroke:none;stroke-width:3.8749299;stroke-linecap:butt;stroke-linejoin:miter;marker:none;marker-start:none;marker-mid:none;marker-end:none;stroke-miterlimit:4;stroke-dasharray:none;stroke-dashoffset:0;stroke-opacity:1;visibility:visible;display:inline;overflow:visible;enable-background:accumulate"
         sodipodi:type="arc" />
      <text
         xml:space="preserve"
         style="font-size:15.54071617px;font-style:normal;font-variant:normal;font-weight:normal;font-stretch:normal;text-align:start;line-height:100%;writing-mode:lr-tb;text-anchor:start;fill:#000000;fill-opacity:1;stroke:none;stroke-width:1px;stroke-linecap:butt;stroke-linejoin:miter;stroke-opacity:1;font-family:Century Schoolbook L;-inkscape-font-specification:Century Schoolbook L"
         x="211.26942"
         y="-343.55597"
         id="text6202"
         sodipodi:linespacing="100%"
         transform="matrix(-0.5735764,0.819152,-0.819152,-0.5735764,0,0)"><tspan
           sodipodi:role="line"
           id="tspan6204"
           x="211.26942"
           y="-343.55597" /></text>
    </g>
    <text
       xml:space="preserve"
       style="font-size:16px;font-style:normal;font-variant:normal;font-weight:normal;font-stretch:normal;text-align:start;line-height:100%;writing-mode:lr-tb;text-anchor:start;fill:#000000;fill-opacity:1;stroke:none;stroke-width:1px;stroke-linecap:butt;stroke-linejoin:miter;stroke-opacity:1;font-family:Century Schoolbook L;-inkscape-font-specification:Century Schoolbook L"
       x="386.82233"
       y="208.34857"
       id="text6213"
       sodipodi:linespacing="100%"><tspan
         sodipodi:role="line"
         id="tspan6215"
         x="386.82233"
         y="208.34857">Sun</tspan></text>
    <text
       xml:space="preserve"
       style="font-size:16px;font-style:normal;font-variant:normal;font-weight:normal;font-stretch:normal;text-align:start;line-height:100%;writing-mode:lr-tb;text-anchor:start;fill:#000000;fill-opacity:1;stroke:none;stroke-width:1px;stroke-linecap:butt;stroke-linejoin:miter;stroke-opacity:1;display:inline;font-family:Century Schoolbook L;-inkscape-font-specification:Century Schoolbook L"
       x="289.89877"
       y="220.46701"
       id="text6217"
       sodipodi:linespacing="100%"><tspan
         sodipodi:role="line"
         id="tspan6219"
         x="289.89877"
         y="220.46701">Antichthon</tspan></text>
    <text
       xml:space="preserve"
       style="font-size:16px;font-style:normal;font-variant:normal;font-weight:normal;font-stretch:normal;text-align:start;line-height:100%;writing-mode:lr-tb;text-anchor:start;fill:#000000;fill-opacity:1;stroke:none;stroke-width:1px;stroke-linecap:butt;stroke-linejoin:miter;stroke-opacity:1;display:inline;font-family:Century Schoolbook L;-inkscape-font-specification:Century Schoolbook L"
       x="86.32859"
       y="217.48065"
       id="text6221"
       sodipodi:linespacing="100%"><tspan
         sodipodi:role="line"
         id="tspan6223"
         x="86.32859"
         y="217.48065">Earth</tspan></text>
    <path
       style="fill:none;fill-opacity:1;fill-rule:nonzero;stroke:#000000;stroke-width:1.87311399000000001;stroke-linecap:butt;stroke-linejoin:miter;marker:none;marker-start:none;marker-mid:none;marker-end:none;stroke-miterlimit:4;stroke-dasharray:none;stroke-dashoffset:0;stroke-opacity:1;visibility:visible;display:inline;overflow:visible;enable-background:accumulate"
       d="M 115.06361,234.23035 L 42.893253,234.23035"
       id="path6225" />
  </g>
</svg>
