<?xml version="1.0" encoding="UTF-8" standalone="no"?>
<!-- Created with Inkscape (http://www.inkscape.org/) -->

<svg
   xmlns:dc="http://purl.org/dc/elements/1.1/"
   xmlns:cc="http://creativecommons.org/ns#"
   xmlns:rdf="http://www.w3.org/1999/02/22-rdf-syntax-ns#"
   xmlns:svg="http://www.w3.org/2000/svg"
   xmlns="http://www.w3.org/2000/svg"
   xmlns:sodipodi="http://sodipodi.sourceforge.net/DTD/sodipodi-0.dtd"
   xmlns:inkscape="http://www.inkscape.org/namespaces/inkscape"
   id="svg2"
   version="1.1"
   inkscape:version="0.48.3.1 r9886"
   width="50"
   height="50"
   xml:space="preserve"
   sodipodi:docname="Hubble_logo.svg"><metadata
     id="metadata8"><rdf:RDF><cc:Work
         rdf:about=""><dc:format>image/svg+xml</dc:format><dc:type
           rdf:resource="http://purl.org/dc/dcmitype/StillImage" /><dc:title /></cc:Work></rdf:RDF></metadata><defs
     id="defs6"><clipPath
       clipPathUnits="userSpaceOnUse"
       id="clipPath20"><path
         d="M 0,1829.69 0,0 l 1522.67,0 0,1829.69"
         id="path22"
         inkscape:connector-curvature="0" /></clipPath></defs><sodipodi:namedview
     pagecolor="#ffffff"
     bordercolor="#666666"
     borderopacity="1"
     objecttolerance="10"
     gridtolerance="10"
     guidetolerance="10"
     inkscape:pageopacity="0"
     inkscape:pageshadow="2"
     inkscape:window-width="1440"
     inkscape:window-height="857"
     id="namedview4"
     showgrid="false"
     inkscape:zoom="6.6739453"
     inkscape:cx="7.7375913"
     inkscape:cy="29.662312"
     inkscape:window-x="0"
     inkscape:window-y="1"
     inkscape:window-maximized="1"
     inkscape:current-layer="g10" /><g
     id="g10"
     inkscape:groupmode="layer"
     inkscape:label="ink_ext_XXXXXX"
     transform="matrix(1.25,0,0,-1.25,0,50)"><g
       id="g14"
       transform="matrix(0.01995051,0,0,0.01995051,4.6636585,-1.3561652)" /><g
       id="g18"
       clip-path="url(#clipPath20)"
       transform="matrix(0.02613595,0,0,0.02613595,0.29939244,-7.9852002)"><path
         d="m 1290.66,1608.65 c -294.708,294.72 -772.574,294.72 -1067.291,0 C -64.4529,1320.84 -71.0254,858.455 203.291,562.46 2.53882,784.67 9.22852,1127.69 223.369,1341.83 c 221.035,221.02 579.419,221.02 800.471,0 221.04,-221.05 221.04,-579.43 0,-800.48 C 809.702,327.2 466.67,320.52 244.482,521.29 540.479,246.95 1002.85,253.53 1290.66,541.35 c 294.73,294.722 294.73,772.58 0,1067.3"
         style="fill:#ffffff;fill-opacity:1;fill-rule:nonzero;stroke:#ffffff;stroke-opacity:1"
         id="path24"
         inkscape:connector-curvature="0" /><path
         d="m 490.186,1341.83 c -147.354,-147.36 -147.354,-386.3 0,-533.67 147.363,-147.36 386.293,-147.36 533.654,0 147.37,147.37 147.37,386.31 0,533.67 73.67,-73.68 73.67,-193.16 0,-266.84 -73.689,-73.68 -193.142,-73.68 -266.819,0 -73.691,73.68 -73.691,193.16 0,266.84 73.677,73.68 193.13,73.68 266.819,0 -147.361,147.35 -386.291,147.35 -533.654,0"
         style="fill:#ffffff;fill-opacity:1;fill-rule:nonzero;stroke:none"
         id="path26"
         inkscape:connector-curvature="0" /></g></g></svg>