<?xml version="1.0" encoding="UTF-8" standalone="no"?>
<!-- Created with Inkscape (http://www.inkscape.org/) -->

<svg
   xmlns:dc="http://purl.org/dc/elements/1.1/"
   xmlns:cc="http://creativecommons.org/ns#"
   xmlns:rdf="http://www.w3.org/1999/02/22-rdf-syntax-ns#"
   xmlns:svg="http://www.w3.org/2000/svg"
   xmlns="http://www.w3.org/2000/svg"
   xmlns:sodipodi="http://sodipodi.sourceforge.net/DTD/sodipodi-0.dtd"
   xmlns:inkscape="http://www.inkscape.org/namespaces/inkscape"
   width="50"
   height="50"
   id="svg34864"
   sodipodi:version="0.32"
   inkscape:version="0.48.3.1 r9886"
   version="1.0"
   sodipodi:docname="Voyager_symbol.svg">
  <defs
     id="defs34866" />
  <sodipodi:namedview
     id="base"
     pagecolor="#ffffff"
     bordercolor="#666666"
     borderopacity="1.0"
     gridtolerance="10000"
     guidetolerance="10"
     objecttolerance="10"
     inkscape:pageopacity="0.0"
     inkscape:pageshadow="2"
     inkscape:zoom="11.313708"
     inkscape:cx="18.615996"
     inkscape:cy="24.831141"
     inkscape:document-units="px"
     inkscape:current-layer="layer1"
     inkscape:window-width="1440"
     inkscape:window-height="776"
     inkscape:window-x="0"
     inkscape:window-y="53"
     showgrid="false"
     inkscape:window-maximized="0"
     showguides="true"
     inkscape:guide-bbox="true"
     inkscape:snap-global="false" />
  <metadata
     id="metadata34869">
    <rdf:RDF>
      <cc:Work
         rdf:about="">
        <dc:format>image/svg+xml</dc:format>
        <dc:type
           rdf:resource="http://purl.org/dc/dcmitype/StillImage" />
        <dc:title />
      </cc:Work>
    </rdf:RDF>
  </metadata>
  <g
     inkscape:label="Layer 1"
     inkscape:groupmode="layer"
     id="layer1"
     transform="translate(-348.7552,-478.0905)">
    <g
       id="g13036"
       transform="matrix(1.5034196,0,0,1.5034196,-187.63213,-252.93797)">
      <path
         id="path12517"
         transform="translate(348.7552,478.0905)"
         d="m 23.40625,28.5625 c -0.376089,0.0036 -0.733295,0.0135 -0.75,0.03125 -0.0213,0.0225 -0.08233,0.20599 -0.125,0.40625 -0.15533,0.72926 -0.32461,1.48399 -0.46875,2.125 -0.33001,1.46755 -0.38025,1.7232 -0.53125,2.375 -0.21206,0.91541 -0.20318,0.94564 -0.125,0.96875 0.0581,0.0172 0.44157,0.09776 0.75,0.15625 0.0863,0.0164 0.09977,-0.02651 0.125,-0.15625 C 22.4107,33.80485 22.59639,33.02862 22.625,33 c 0.0411,-0.0411 1.35589,0.10531 1.40625,0.15625 0.0297,0.0301 0.09366,0.20601 0.125,0.40625 0.15984,1.02052 0.20719,1.20745 0.3125,1.25 0.11852,0.048 0.59606,0.07245 0.75,0.03125 0.13413,-0.036 0.15451,-0.19298 0.09375,-0.46875 C 25.286,34.25485 25.24215,34.071 25.21875,33.9375 25.19545,33.804 25.11962,33.44996 25.0625,33.15625 25.0054,32.86255 24.9078,32.33376 24.84375,32 24.77975,31.66624 24.69553,31.24941 24.65625,31.0625 24.61705,30.8756 24.55461,30.4812 24.5,30.1875 24.24572,28.81894 24.19941,28.60566 24.1875,28.59375 24.17015,28.5764 23.782339,28.558875 23.40625,28.5625 z m -0.03125,0.875 c 0.0172,0 0.06525,0.13228 0.09375,0.3125 0.0283,0.18024 0.10239,0.72024 0.1875,1.1875 0.0851,0.46728 0.17467,0.91323 0.1875,1 0.0263,0.17749 0.09771,0.16764 -0.65625,0.125 C 23.00389,32.0521 22.8888,32.036 22.875,32 c -0.0369,-0.0963 0.44354,-2.5625 0.5,-2.5625 z"
         style="fill:#ffffff;fill-opacity:1"
         inkscape:connector-curvature="0" />
      <path
         id="path12513"
         d="m 377.40967,512.80712 c 0.22079,-0.10382 0.4491,-0.35359 0.4491,-0.4914 0,-0.0441 0.0188,-0.0804 0.0419,-0.0804 0.0857,0 0.10382,-0.57184 0.0525,-1.66496 -0.029,-0.61897 -0.0581,-1.13066 -0.0645,-1.13709 -0.007,-0.007 -0.26155,0.009 -0.56694,0.0357 -0.30537,0.026 -0.71907,0.0528 -0.91933,0.0597 l -0.3641,0.0123 -0.008,0.42768 -0.008,0.42767 0.41932,-0.0104 c 0.50515,-0.0122 0.48224,-0.05 0.48932,0.80993 0.006,0.75646 0.0118,0.75029 -0.70926,0.78341 -0.79128,0.0363 -0.7214,0.22831 -0.79575,-2.18586 -0.073,-2.37039 -0.14079,-2.14517 0.66029,-2.19368 0.70785,-0.0428 0.71922,-0.0346 0.75457,0.55149 0.0145,0.24143 0.0401,0.45253 0.0565,0.4691 0.0166,0.0166 0.23952,0.002 0.49546,-0.0308 l 0.46534,-0.0609 0,-0.74649 c 0,-0.84266 -0.0315,-0.95448 -0.31869,-1.13199 l -0.17539,-0.10835 -1.19723,0.057 c -0.65848,0.0313 -1.26807,0.0694 -1.35466,0.0848 -0.1785,0.0315 -0.43001,0.287 -0.48046,0.48808 -0.0383,0.15272 0.0685,4.20826 0.12584,4.77704 0.0468,0.46484 0.20293,0.72608 0.54353,0.90986 0.20857,0.11253 0.22388,0.11358 1.20393,0.0808 0.85484,-0.0286 1.02201,-0.047 1.20404,-0.13253 z"
         style="fill:#ffffff;fill-opacity:1"
         inkscape:connector-curvature="0" />
      <path
         id="path12511"
         d="m 379.04816,512.69807 c 0.56912,-0.0782 2.07095,-0.33583 2.44327,-0.41917 0.22784,-0.051 0.25539,-0.07 0.23126,-0.15992 -0.0151,-0.0561 -0.028,-0.2659 -0.0288,-0.46616 -0.001,-0.20026 -0.0192,-0.39217 -0.041,-0.42647 -0.0315,-0.0497 -0.20161,-0.0329 -0.83669,0.083 -0.43841,0.0799 -0.90835,0.15952 -1.04432,0.17684 l -0.2472,0.0315 -0.0317,-0.47856 c -0.0174,-0.26323 -0.0318,-0.65781 -0.0319,-0.87689 l -2.4e-4,-0.39831 0.18204,-0.0287 c 0.10011,-0.0158 0.23667,-0.0386 0.30342,-0.0507 0.0668,-0.0122 0.37261,-0.0654 0.67966,-0.11819 0.30707,-0.0528 0.65183,-0.12339 0.76615,-0.15672 l 0.20786,-0.0606 -0.0137,-0.51083 c -0.0116,-0.42193 -0.0264,-0.5088 -0.0865,-0.49918 -0.0401,0.006 -0.49803,0.0858 -1.01774,0.17655 -0.5197,0.0907 -0.9736,0.15387 -1.00865,0.14043 -0.0494,-0.0189 -0.0607,-0.17905 -0.0503,-0.70921 l 0.0135,-0.68476 0.41264,-0.0581 c 0.4181,-0.0589 1.12599,-0.17718 1.48068,-0.2474 l 0.1942,-0.0384 0.0139,-0.47262 c 0.0105,-0.36036 -0.001,-0.47239 -0.0485,-0.47173 -0.0344,4.9e-4 -0.36829,0.0557 -0.7421,0.12276 -0.3738,0.067 -1.02919,0.16596 -1.45641,0.21986 -0.4272,0.0539 -0.82827,0.10893 -0.89123,0.12223 l -0.11451,0.0241 0.0316,1.10221 c 0.0173,0.6062 0.0517,1.57189 0.0763,2.14596 0.0245,0.57406 0.059,1.49705 0.0767,2.0511 0.0177,0.55403 0.0457,1.0063 0.0625,1.00502 0.0167,-10e-4 0.24896,-0.0323 0.51597,-0.069 z"
         style="fill:#ffffff;fill-opacity:1"
         inkscape:connector-curvature="0" />
      <path
         id="path12509"
         d="m 369.59862,511.19881 -0.0171,-1.23075 0.13174,-0.28634 c 0.0725,-0.15748 0.18979,-0.43926 0.26076,-0.62616 0.071,-0.1869 0.16138,-0.41629 0.20091,-0.50974 0.36962,-0.87381 0.69873,-1.75542 0.68401,-1.83229 -0.0136,-0.0708 -0.0939,-0.0917 -0.4732,-0.12317 -0.52194,-0.0432 -0.48553,-0.0661 -0.63957,0.40196 -0.0571,0.17355 -0.12298,0.33631 -0.14638,0.36168 -0.0233,0.0254 -0.0425,0.0747 -0.0425,0.10962 0,0.11021 -0.44479,1.27641 -0.48682,1.27641 -0.0401,0 -0.0827,-0.10487 -0.60377,-1.484 -0.15201,-0.40236 -0.29123,-0.75556 -0.30937,-0.78492 -0.0326,-0.0527 -0.97247,-0.18097 -1.01493,-0.13851 -0.0121,0.0121 0.0121,0.0835 0.0538,0.15878 0.10894,0.19707 0.34279,0.72806 0.44518,1.01071 0.0484,0.1335 0.10231,0.26457 0.11976,0.29128 0.0175,0.0267 0.0712,0.15777 0.11921,0.29127 0.0481,0.13351 0.14671,0.37382 0.21922,0.53403 0.0725,0.1602 0.2043,0.47697 0.2929,0.70393 0.0886,0.22695 0.17943,0.43339 0.20181,0.45877 0.0224,0.0254 0.0408,0.38793 0.0408,0.80569 0,0.41778 0.014,0.95776 0.0312,1.19996 l 0.0312,0.44038 0.22361,0.0625 c 0.42363,0.11833 0.46673,0.12827 0.58054,0.13399 l 0.11416,0.006 -0.0171,-1.23076 z"
         style="fill:#ffffff;fill-opacity:1"
         inkscape:connector-curvature="0" />
      <path
         id="path12507"
         transform="translate(348.7552,478.0905)"
         d="m 35.65625,27.125 c -0.160636,0.02124 -0.348925,0.05544 -0.5625,0.125 -0.47483,0.15463 -0.92998,0.27499 -1.5,0.40625 -0.1561,0.036 -0.29362,0.10215 -0.3125,0.125 -0.0348,0.042 5.5e-4,1.27715 0.09375,3.5625 0.0285,0.69423 0.0627,1.57481 0.0625,1.9375 -2.9e-4,0.36268 0.01385,0.67019 0.03125,0.6875 0.0307,0.0308 0.06868,0.0322 0.46875,-0.0625 0.10684,-0.0253 0.26626,-0.09465 0.34375,-0.125 L 34.40625,33.75 34.375,32.4375 34.34375,31.09375 34.625,31.03125 c 0.15444,-0.0455 0.41373,-0.14059 0.59375,-0.1875 0.32121,-0.0837 0.34197,-0.06435 0.4375,0.03125 0.083,0.083 0.11535,0.18166 0.15625,0.78125 0.0264,0.3865 0.03085,0.92717 0.03125,1.1875 5.1e-4,0.3765 0.0076,0.46875 0.0625,0.46875 0.038,0 0.26449,-0.04486 0.5,-0.125 0.23551,-0.0801 0.45802,-0.15625 0.46875,-0.15625 0.0105,0 -0.01235,-0.49965 -0.03125,-1.09375 -0.0332,-1.07145 -0.02515,-1.05947 -0.15625,-1.25 -0.0785,-0.11415 -0.22524,-0.26551 -0.375,-0.34375 l -0.25,-0.125 0.15625,-0.15625 c 0.21215,-0.19145 0.34649,-0.37802 0.46875,-0.65625 0.0756,-0.17212 0.10975,-0.29343 0.09375,-0.84375 -0.0172,-0.58661 -0.03597,-0.69154 -0.15625,-0.9375 -0.206288,-0.421627 -0.486842,-0.563713 -0.96875,-0.5 z m -0.3125,0.96875 c 0.0856,-0.0117 0.19294,0.0184 0.25,0.0625 0.0885,0.069 0.09375,0.12755 0.09375,0.71875 l 0,0.65625 -0.15625,0.1875 c -0.10046,0.12411 -0.23223,0.20651 -0.375,0.25 -0.75429,0.22982 -0.82518,0.24472 -0.84375,0.1875 -0.0491,-0.15128 -0.0466,-1.72119 0,-1.75 0.0746,-0.0461 0.86304,-0.28948 1.03125,-0.3125 z"
         style="fill:#ffffff;fill-opacity:1"
         inkscape:connector-curvature="0" />
      <path
         id="path12503"
         transform="translate(348.7552,478.0905)"
         d="m 16,27.90625 c -0.113669,-0.0028 -0.190325,0.0066 -0.25,0.03125 -0.29964,0.12412 -0.31101,0.1411 -0.25,1.6875 0.0303,0.76755 0.0554,1.68413 0.0625,2.03125 0.014,0.69579 0.05114,0.80113 0.34375,1.09375 0.12465,0.12467 0.33723,0.21509 0.875,0.40625 0.85978,0.30562 1.13459,0.33978 1.375,0.125 l 0.15625,-0.15625 0,-0.65625 c 0,-0.36933 -0.04,-1.36433 -0.0625,-2.21875 C 18.2053,28.54235 18.19186,28.4578 17.90625,28.28125 17.70606,28.15754 17.28071,28.03749 16.5,27.9375 16.24598,27.905 16.113669,27.9091 16,27.90625 z M 16.65625,28.75 c 0.144939,0.0018 0.305585,0.0295 0.4375,0.0625 0.3529,0.0888 0.35773,0.0917 0.375,2 l 0,1.65625 -0.125,0 c -0.0668,0.006 -0.23529,-0.0115 -0.375,-0.0625 C 16.57838,32.2641 16.43828,32.12633 16.375,31.875 c -0.057,-0.22637 -0.0543,-2.97481 0,-3.0625 0.01935,-0.03125 0.136311,-0.06431 0.28125,-0.0625 z"
         style="fill:#ffffff;fill-opacity:1"
         inkscape:connector-curvature="0" />
      <path
         id="path12499"
         d="m 363.1976,510.06914 c 0,-0.0489 0.62972,-3.21944 0.70269,-3.53801 0.15996,-0.69831 0.16365,-0.69016 -0.33299,-0.73653 -0.31064,-0.029 -0.32114,-0.0264 -0.32114,0.0806 0,0.0609 -0.0214,0.18961 -0.0476,0.28616 -0.0448,0.16563 -0.085,0.36752 -0.36855,1.85041 -0.0638,0.33377 -0.11645,0.65599 -0.11697,0.71606 -10e-4,0.15369 -0.082,0.13625 -0.11218,-0.0243 -0.10023,-0.53291 -0.62066,-2.78314 -0.74,-3.19944 -0.0163,-0.0569 -0.69556,-0.23393 -0.73731,-0.19218 -0.0219,0.022 0.0549,0.38828 0.37291,1.77744 0.0826,0.36046 0.2039,0.91754 0.26974,1.23795 0.25824,1.25667 0.20969,1.13273 0.50932,1.30007 0.14641,0.0818 0.38643,0.22057 0.53341,0.30846 0.25547,0.15277 0.38857,0.19841 0.38857,0.13325 z"
         style="fill:#ffffff;fill-opacity:1"
         inkscape:connector-curvature="0" />
      <path
         id="path12497"
         d="m 361.09115,507.51983 c -0.0662,-0.27678 -0.16679,-0.69192 -0.22352,-0.92253 l -0.10312,-0.41929 -0.2277,-0.0848 c -1.55357,-0.57807 -2.84794,-1.68214 -3.26661,-2.78634 -0.0708,-0.18674 -0.11067,-0.42994 -0.12787,-0.78094 -0.0214,-0.43479 -0.009,-0.56329 0.0836,-0.87385 0.12518,-0.4195 0.33328,-0.85536 0.55203,-1.15619 0.20846,-0.2867 0.84516,-0.92654 1.19724,-1.20315 0.15957,-0.12538 0.29014,-0.25751 0.29014,-0.29362 0,-0.0963 -0.0253,-0.0857 -0.32976,0.13746 -0.3872,0.28383 -1.1201,1.03185 -1.36645,1.39462 -0.26073,0.38395 -0.52133,0.95299 -0.61149,1.33525 -0.14369,0.60928 -0.0596,1.55124 0.20075,2.24776 0.39923,1.06821 1.11209,1.98937 2.13122,2.75396 0.29371,0.22036 0.63233,0.45993 0.75248,0.5324 0.12016,0.0725 0.426,0.26003 0.67966,0.41681 0.25366,0.15679 0.46763,0.26719 0.47551,0.24534 0.008,-0.0218 -0.0398,-0.26618 -0.10603,-0.54296 z"
         style="fill:#ffffff;fill-opacity:1"
         inkscape:connector-curvature="0" />
      <path
         id="path12495"
         d="m 362.89297,500.42853 c 0.28248,-0.10383 0.85702,-0.5036 0.81693,-0.56847 -0.0142,-0.0229 -0.10789,-0.0566 -0.20834,-0.0748 -0.10046,-0.0182 -0.61922,-0.14145 -1.15287,-0.27387 -0.53368,-0.1324 -0.99933,-0.23467 -1.03479,-0.22726 -0.0951,0.0199 0.27723,0.52979 0.68865,0.94315 0.3852,0.38701 0.3849,0.38695 0.89042,0.20122 z"
         style="fill:#ffffff;fill-opacity:1"
         inkscape:connector-curvature="0" />
      <path
         id="path12493"
         d="m 366.59589,499.5767 c 0.27015,-0.13494 0.25379,-0.26843 -0.0698,-0.56958 -0.19446,-0.18097 -0.46312,-0.34754 -0.93874,-0.58201 -0.36647,-0.18067 -0.70425,-0.34773 -0.75061,-0.37123 -0.11773,-0.0597 -0.18279,-0.0533 -0.18221,0.0179 2.9e-4,0.0333 0.0864,0.0967 0.19146,0.14088 0.27613,0.1159 0.78801,0.46449 0.89571,0.6099 0.20749,0.28011 -0.10545,0.41525 -0.8685,0.37508 -0.29331,-0.0154 -0.53806,-0.0329 -0.54388,-0.0387 -0.006,-0.006 0.0471,-0.1627 0.11776,-0.34863 0.10974,-0.28896 0.12865,-0.4156 0.1305,-0.87206 0.002,-0.59183 -0.0914,-0.95027 -0.36571,-1.39842 -0.13325,-0.21765 -0.14709,-0.325 -0.0419,-0.325 0.0243,0 0.15958,-0.0523 0.30055,-0.11621 0.14098,-0.0639 0.51847,-0.2085 0.83888,-0.32131 0.32041,-0.11277 0.62625,-0.22455 0.67965,-0.24829 0.0948,-0.042 0.49919,-0.16692 1.33504,-0.41194 1.37098,-0.40189 4.16254,-0.96894 5.47375,-1.11188 0.28023,-0.0305 0.40184,-0.0869 0.33407,-0.1546 -0.049,-0.049 -2.09803,0.2699 -3.16202,0.49219 -2.46035,0.51403 -3.68332,0.8649 -5.54544,1.59095 l -0.49656,0.19363 -0.2801,-0.24965 c -0.15405,-0.13731 -0.32993,-0.26216 -0.39085,-0.27745 -0.061,-0.0153 -0.25758,0.0174 -0.43701,0.0726 -0.17944,0.0553 -0.40272,0.1145 -0.49617,0.13176 -0.25608,0.0471 -0.36388,0.13696 -0.43015,0.35815 -0.0437,0.14594 -0.11556,0.23896 -0.26402,0.34191 -0.41594,0.28843 -0.46686,0.34236 -0.49625,0.52548 -0.0159,0.0989 -0.0379,0.22458 -0.0488,0.27926 -0.0104,0.0547 -0.10963,0.14981 -0.21912,0.21138 -0.10951,0.0615 -0.21003,0.14017 -0.22327,0.17467 -0.0132,0.0345 0.0455,0.18615 0.13071,0.337 0.0851,0.15083 0.14136,0.28768 0.12495,0.30409 -0.0404,0.0404 -0.30742,-0.0403 -1.19208,-0.36055 -1.14757,-0.41542 -2.03559,-0.87773 -2.21659,-1.15398 -0.10104,-0.15416 -0.0242,-0.29669 0.18469,-0.34256 0.21835,-0.048 0.86891,-0.0365 1.35018,0.0239 0.22204,0.0279 0.41242,0.0419 0.42307,0.0312 0.0591,-0.0591 -0.96734,-0.1745 -1.53983,-0.17307 -0.53655,10e-4 -0.80506,0.0528 -0.93079,0.17859 -0.0871,0.087 -0.0871,0.0943 1.5e-4,0.25832 0.0494,0.0928 0.21854,0.26068 0.37604,0.37301 0.42382,0.30227 1.66813,0.90811 2.27677,1.10852 0.74447,0.24515 1.45082,0.50799 1.47641,0.54939 0.0431,0.0697 0.68189,0.27112 1.48056,0.4668 1.04137,0.25515 1.35011,0.31088 1.43484,0.25903 0.0477,-0.0293 0.25771,-0.0207 0.58424,0.0237 0.28036,0.0381 0.80466,0.0723 1.16513,0.0759 0.53609,0.006 0.68631,-0.009 0.8253,-0.0783 z"
         style="fill:#ffffff;fill-opacity:1"
         inkscape:connector-curvature="0" />
      <path
         id="path12491"
         d="m 389.94694,497.82434 c 0,-0.0622 -0.52893,-0.55105 -0.77674,-0.71774 -0.36993,-0.24884 -0.37625,-0.23549 -0.0365,0.077 0.18023,0.16571 0.32769,0.31988 0.32769,0.34258 0,0.0527 -0.20419,-0.007 -0.49366,-0.14317 l -0.22666,-0.10707 0.008,-0.32628 c 0.006,-0.24466 -0.014,-0.36018 -0.0806,-0.4619 -0.0489,-0.0746 -0.1015,-0.12296 -0.11702,-0.10743 -0.0154,0.0154 0.0104,0.0712 0.0583,0.12378 0.11021,0.12174 0.0645,0.24484 -0.0909,0.24484 -0.0661,0 -0.15041,0.0432 -0.18742,0.096 -0.0558,0.0795 -0.0931,0.0887 -0.21757,0.053 -0.19006,-0.0545 -0.20707,-0.0352 -0.15028,0.17042 0.0254,0.092 0.0329,0.18885 0.0166,0.21519 -0.0163,0.0264 0.012,0.048 0.0628,0.048 0.12438,0 0.26305,0.16037 0.22482,0.25999 -0.0463,0.12091 0.008,0.0973 0.22134,-0.0948 l 0.1933,-0.17464 0.54372,0.27174 c 0.51544,0.25761 0.72054,0.32324 0.72054,0.23058 z"
         style="fill:#ffffff;fill-opacity:1"
         inkscape:connector-curvature="0" />
      <path
         id="path12489"
         d="m 387.82992,497.3519 c 0.0432,-0.11241 -0.0189,-0.31169 -0.0971,-0.31169 -0.0465,0 -0.0676,0.0606 -0.0676,0.19419 0,0.20033 0.10428,0.27477 0.16468,0.1175 z"
         style="fill:#000000"
         inkscape:connector-curvature="0" />
      <path
         id="path12487"
         d="m 387.74702,496.88547 c -0.0154,-0.0387 -0.0271,-0.0273 -0.0294,0.0293 -0.002,0.0512 0.009,0.0799 0.0256,0.0638 0.0161,-0.0161 0.0179,-0.0581 0.003,-0.093 z"
         style="fill:#000000"
         inkscape:connector-curvature="0" />
      <path
         id="path12483"
         d="m 376.05626,496.29621 c 0.44907,-0.13017 0.79641,-0.33066 1.10225,-0.63624 0.46081,-0.46045 0.66771,-0.90046 0.74344,-1.58112 l 0.0297,-0.26701 0.24273,0.003 c 0.25334,0.003 0.85201,0.0605 1.0195,0.097 0.10963,0.0238 0.41668,0.0698 0.62376,0.0934 0.14828,0.0168 0.36956,0.0566 0.56563,0.1015 0.0668,0.0152 0.20875,0.0393 0.31556,0.0533 0.20744,0.0273 1.8121,0.4207 2.13606,0.5237 0.10685,0.0339 0.32527,0.0995 0.48547,0.1457 0.16021,0.0462 0.41289,0.12551 0.56152,0.17628 0.14863,0.0508 0.31357,0.0923 0.36653,0.0923 0.053,0 0.11704,0.0199 0.14241,0.044 0.0254,0.0242 0.12259,0.0657 0.21604,0.0921 0.0935,0.0265 0.38837,0.12791 0.65537,0.22544 0.26701,0.0975 0.57286,0.20673 0.67965,0.24266 0.10685,0.036 0.41266,0.15598 0.67967,0.26677 0.26701,0.11079 0.52378,0.21012 0.57061,0.22072 0.0468,0.0104 0.10684,0.0327 0.13342,0.0491 0.0266,0.0164 0.0969,-0.005 0.15626,-0.0459 0.0593,-0.0416 0.0791,-0.0756 0.0438,-0.0756 -0.0353,0 -0.13298,-0.0305 -0.21712,-0.0678 -0.0842,-0.0373 -0.28405,-0.11665 -0.44425,-0.1764 -0.16021,-0.0598 -0.41144,-0.15882 -0.55829,-0.22016 -0.27421,-0.11451 -0.64764,-0.25265 -0.77675,-0.28729 -0.0401,-0.0104 -0.19298,-0.0657 -0.33983,-0.12229 -0.40845,-0.15717 -1.07256,-0.38591 -1.26222,-0.43475 -0.0935,-0.024 -0.38839,-0.11254 -0.65539,-0.19656 -0.75246,-0.23685 -1.61154,-0.47801 -1.9881,-0.55812 -0.18818,-0.0401 -0.52784,-0.11416 -0.7548,-0.16465 -0.54714,-0.1218 -0.96188,-0.1896 -1.80807,-0.29556 -0.24714,-0.031 -0.54766,-0.0779 -0.66782,-0.10429 -0.21718,-0.0477 -0.21907,-0.0499 -0.32462,-0.37844 -0.18179,-0.5658 -0.52607,-0.99831 -0.9268,-1.1643 -0.12083,-0.05 -0.18941,-0.0352 -0.56808,0.12337 -0.7379,0.30889 -1.2242,0.80159 -1.57294,1.59364 -0.17941,0.4075 -0.20002,0.49406 -0.20002,0.83986 0,0.46286 0.038,0.5813 0.3727,1.16098 0.14212,0.24617 0.2584,0.47882 0.2584,0.51702 0,0.22126 0.42246,0.27122 0.96458,0.11405 z"
         style="fill:#ffffff;fill-opacity:1"
         inkscape:connector-curvature="0" />
    </g>
  </g>
</svg>
