<?xml version="1.0" encoding="UTF-8" standalone="no"?>
<!-- Created with Inkscape (http://www.inkscape.org/) -->

<svg
   xmlns:dc="http://purl.org/dc/elements/1.1/"
   xmlns:cc="http://creativecommons.org/ns#"
   xmlns:rdf="http://www.w3.org/1999/02/22-rdf-syntax-ns#"
   xmlns:svg="http://www.w3.org/2000/svg"
   xmlns="http://www.w3.org/2000/svg"
   xmlns:sodipodi="http://sodipodi.sourceforge.net/DTD/sodipodi-0.dtd"
   xmlns:inkscape="http://www.inkscape.org/namespaces/inkscape"
   width="50"
   height="50"
   id="svg34864"
   sodipodi:version="0.32"
   inkscape:version="0.48.3.1 r9886"
   version="1.0"
   sodipodi:docname="Voyager_symbol.svg">
  <defs
     id="defs34866" />
  <sodipodi:namedview
     id="base"
     pagecolor="#ffffff"
     bordercolor="#666666"
     borderopacity="1.0"
     gridtolerance="10000"
     guidetolerance="10"
     objecttolerance="10"
     inkscape:pageopacity="0.0"
     inkscape:pageshadow="2"
     inkscape:zoom="11.313708"
     inkscape:cx="25.8199"
     inkscape:cy="24.831141"
     inkscape:document-units="px"
     inkscape:current-layer="layer1"
     inkscape:window-width="1440"
     inkscape:window-height="857"
     inkscape:window-x="0"
     inkscape:window-y="1"
     showgrid="false"
     inkscape:window-maximized="1"
     showguides="true"
     inkscape:guide-bbox="true"
     inkscape:snap-global="false" />
  <metadata
     id="metadata34869">
    <rdf:RDF>
      <cc:Work
         rdf:about="">
        <dc:format>image/svg+xml</dc:format>
        <dc:type
           rdf:resource="http://purl.org/dc/dcmitype/StillImage" />
        <dc:title />
      </cc:Work>
    </rdf:RDF>
  </metadata>
  <g
     inkscape:label="Layer 1"
     inkscape:groupmode="layer"
     id="layer1"
     transform="translate(-348.7552,-478.0905)">
    <g
       id="g13036"
       transform="matrix(1.4693648,0,0,1.7891284,-174.9593,-395.95909)">
      <path
         id="path12517"
         d="m 373.10139,506.653 c -0.42712,0.004 -0.8328,0.0135 -0.85177,0.0313 -0.0242,0.0225 -0.0935,0.20599 -0.14196,0.40625 -0.17641,0.72926 -0.36866,1.48399 -0.53236,2.125 -0.37479,1.46755 -0.43185,1.7232 -0.60334,2.375 -0.24083,0.91541 -0.23075,0.94564 -0.14196,0.96875 0.066,0.0172 0.50149,0.0978 0.85177,0.15625 0.098,0.0164 0.11331,-0.0265 0.14197,-0.15625 0.14701,-0.6639 0.3579,-1.44013 0.39039,-1.46875 0.0467,-0.0411 1.53988,0.10531 1.59707,0.15625 0.0337,0.0301 0.10637,0.20601 0.14197,0.40625 0.18153,1.02052 0.2353,1.20745 0.3549,1.25 0.1346,0.048 0.67695,0.0725 0.85177,0.0313 0.15234,-0.036 0.17548,-0.19298 0.10648,-0.46875 -0.0301,-0.12015 -0.0799,-0.304 -0.10648,-0.4375 -0.0265,-0.1335 -0.11258,-0.48754 -0.17745,-0.78125 -0.0648,-0.2937 -0.17569,-0.82249 -0.24843,-1.15625 -0.0727,-0.33376 -0.16833,-0.75059 -0.21294,-0.9375 -0.0445,-0.1869 -0.11544,-0.5813 -0.17746,-0.875 -0.28878,-1.36856 -0.34138,-1.58184 -0.3549,-1.59375 -0.0197,-0.0174 -0.46014,-0.0349 -0.88727,-0.0313 z m -0.0355,0.875 c 0.0195,0 0.0741,0.13228 0.10648,0.3125 0.0321,0.18024 0.11628,0.72024 0.21294,1.1875 0.0966,0.46728 0.19837,0.91323 0.21294,1 0.0299,0.17749 0.11097,0.16764 -0.7453,0.125 -0.20852,-0.0104 -0.33923,-0.0265 -0.3549,-0.0625 -0.0419,-0.0963 0.50372,-2.5625 0.56784,-2.5625 z"
         style="fill:#ffffff;fill-opacity:1"
         inkscape:connector-curvature="0" />
      <path
         id="path12513"
         d="m 378.77805,512.80712 c 0.24984,-0.10382 0.50818,-0.35359 0.50818,-0.4914 0,-0.0441 0.0213,-0.0804 0.0474,-0.0804 0.097,0 0.11748,-0.57184 0.0594,-1.66496 -0.0328,-0.61897 -0.0657,-1.13066 -0.073,-1.13709 -0.008,-0.007 -0.29595,0.009 -0.64152,0.0357 -0.34554,0.026 -0.81366,0.0528 -1.04027,0.0597 l -0.41199,0.0123 -0.009,0.42768 -0.009,0.42767 0.47448,-0.0104 c 0.57161,-0.0122 0.54568,-0.05 0.55369,0.80993 0.007,0.75646 0.0134,0.75029 -0.80256,0.78341 -0.89537,0.0363 -0.8163,0.22831 -0.90043,-2.18586 -0.0826,-2.37039 -0.15931,-2.14517 0.74715,-2.19368 0.80097,-0.0428 0.81383,-0.0346 0.85383,0.55149 0.0164,0.24143 0.0454,0.45253 0.0639,0.4691 0.0188,0.0166 0.27103,0.002 0.56063,-0.0308 l 0.52656,-0.0609 0,-0.74649 c 0,-0.84266 -0.0356,-0.95448 -0.36061,-1.13199 l -0.19847,-0.10835 -1.35472,0.057 c -0.74511,0.0313 -1.43489,0.0694 -1.53287,0.0848 -0.20198,0.0315 -0.48658,0.287 -0.54366,0.48808 -0.0433,0.15272 0.0775,4.20826 0.14239,4.77704 0.053,0.46484 0.22963,0.72608 0.61503,0.90986 0.23601,0.11253 0.25333,0.11358 1.36231,0.0808 0.96729,-0.0286 1.15646,-0.047 1.36243,-0.13253 z"
         style="fill:#ffffff;fill-opacity:1"
         inkscape:connector-curvature="0" />
      <path
         id="path12511"
         d="m 380.57816,512.69807 c 0.67845,-0.0782 2.46878,-0.33583 2.91262,-0.41917 0.27161,-0.051 0.30445,-0.07 0.27568,-0.15992 -0.018,-0.0561 -0.0334,-0.2659 -0.0343,-0.46616 -0.001,-0.20026 -0.0229,-0.39217 -0.0489,-0.42647 -0.0376,-0.0497 -0.24033,-0.0329 -0.99741,0.083 -0.52263,0.0799 -1.08284,0.15952 -1.24493,0.17684 l -0.29469,0.0315 -0.0378,-0.47856 c -0.0207,-0.26323 -0.0379,-0.65781 -0.038,-0.87689 l -2.8e-4,-0.39831 0.21701,-0.0287 c 0.11934,-0.0158 0.28213,-0.0386 0.3617,-0.0507 0.0796,-0.0122 0.44419,-0.0654 0.81022,-0.11819 0.36606,-0.0528 0.77705,-0.12339 0.91333,-0.15672 l 0.24779,-0.0606 -0.0163,-0.51083 c -0.0138,-0.42193 -0.0315,-0.5088 -0.10312,-0.49918 -0.0478,0.006 -0.5937,0.0858 -1.21324,0.17655 -0.61954,0.0907 -1.16063,0.15387 -1.20241,0.14043 -0.0589,-0.0189 -0.0724,-0.17905 -0.06,-0.70921 l 0.0161,-0.68476 0.4919,-0.0581 c 0.49842,-0.0589 1.34229,-0.17718 1.76512,-0.2474 l 0.2315,-0.0384 0.0166,-0.47262 c 0.0125,-0.36036 -0.001,-0.47239 -0.0578,-0.47173 -0.041,4.9e-4 -0.43904,0.0557 -0.88466,0.12276 -0.4456,0.067 -1.22689,0.16596 -1.73618,0.21986 -0.50926,0.0539 -0.98738,0.10893 -1.06243,0.12223 l -0.13651,0.0241 0.0377,1.10221 c 0.0206,0.6062 0.0616,1.57189 0.091,2.14596 0.0292,0.57406 0.0703,1.49705 0.0914,2.0511 0.0211,0.55403 0.0545,1.0063 0.0745,1.00502 0.0199,-10e-4 0.29678,-0.0323 0.61508,-0.069 z"
         style="fill:#ffffff;fill-opacity:1"
         inkscape:connector-curvature="0" />
      <path
         id="path12509"
         d="m 369.95652,511.19881 -0.0196,-1.23075 0.15091,-0.28634 c 0.0831,-0.15748 0.21741,-0.43926 0.29871,-0.62616 0.0813,-0.1869 0.18486,-0.41629 0.23014,-0.50974 0.42342,-0.87381 0.80042,-1.75542 0.78356,-1.83229 -0.0156,-0.0708 -0.10757,-0.0917 -0.54207,-0.12317 -0.59789,-0.0432 -0.55619,-0.0661 -0.73264,0.40196 -0.0654,0.17355 -0.14088,0.33631 -0.16768,0.36168 -0.0267,0.0254 -0.0487,0.0747 -0.0487,0.10962 0,0.11021 -0.50952,1.27641 -0.55767,1.27641 -0.0459,0 -0.0947,-0.10487 -0.69163,-1.484 -0.17413,-0.40236 -0.33361,-0.75556 -0.35439,-0.78492 -0.0374,-0.0527 -1.114,-0.18097 -1.16264,-0.13851 -0.0139,0.0121 0.0139,0.0835 0.0616,0.15878 0.1248,0.19707 0.39268,0.72806 0.50997,1.01071 0.0554,0.1335 0.1172,0.26457 0.13719,0.29128 0.0201,0.0267 0.0816,0.15777 0.13656,0.29127 0.0551,0.13351 0.16806,0.37382 0.25112,0.53403 0.083,0.1602 0.23403,0.47697 0.33553,0.70393 0.10149,0.22695 0.20554,0.43339 0.23117,0.45877 0.0257,0.0254 0.0467,0.38793 0.0467,0.80569 0,0.41778 0.016,0.95776 0.0357,1.19996 l 0.0357,0.44038 0.25615,0.0625 c 0.48529,0.11833 0.53466,0.12827 0.66503,0.13399 l 0.13077,0.006 -0.0196,-1.23076 z"
         style="fill:#ffffff;fill-opacity:1"
         inkscape:connector-curvature="0" />
      <path
         id="path12507"
         d="m 387.23308,505.2155 c -0.20882,0.0212 -0.45359,0.0554 -0.73123,0.125 -0.61727,0.15463 -1.20895,0.27499 -1.94997,0.40625 -0.20292,0.036 -0.38169,0.10215 -0.40624,0.125 -0.0452,0.042 7.2e-4,1.27715 0.12187,3.5625 0.0371,0.69423 0.0815,1.57481 0.0813,1.9375 -3.7e-4,0.36268 0.018,0.67019 0.0406,0.6875 0.0399,0.0308 0.0893,0.0322 0.60936,-0.0625 0.13889,-0.0253 0.34613,-0.0947 0.44687,-0.125 l 0.16249,-0.0313 -0.0406,-1.3125 -0.0406,-1.34375 0.36561,-0.0625 c 0.20077,-0.0455 0.53784,-0.14059 0.77187,-0.1875 0.41756,-0.0837 0.44455,-0.0644 0.56873,0.0313 0.1079,0.083 0.14996,0.18166 0.20313,0.78125 0.0343,0.3865 0.0401,0.92717 0.0406,1.1875 6.6e-4,0.3765 0.01,0.46875 0.0813,0.46875 0.0494,0 0.34383,-0.0449 0.64999,-0.125 0.30615,-0.0801 0.59541,-0.15625 0.60936,-0.15625 0.0136,0 -0.0161,-0.49965 -0.0406,-1.09375 -0.0432,-1.07145 -0.0327,-1.05947 -0.20313,-1.25 -0.10204,-0.11415 -0.2928,-0.26551 -0.48749,-0.34375 l -0.32499,-0.125 0.20312,-0.15625 c 0.27579,-0.19145 0.45043,-0.37802 0.60936,-0.65625 0.0983,-0.17212 0.14268,-0.29343 0.12188,-0.84375 -0.0224,-0.58661 -0.0468,-0.69154 -0.20312,-0.9375 -0.26817,-0.42163 -0.63289,-0.56371 -1.25936,-0.5 z m -0.40624,0.96875 c 0.11128,-0.0117 0.25082,0.0184 0.325,0.0625 0.11504,0.069 0.12187,0.12755 0.12187,0.71875 l 0,0.65625 -0.20312,0.1875 c -0.1306,0.12411 -0.3019,0.20651 -0.48749,0.25 -0.98056,0.22982 -1.07272,0.24472 -1.09686,0.1875 -0.0638,-0.15128 -0.0606,-1.72119 0,-1.75 0.097,-0.0461 1.12193,-0.28948 1.3406,-0.3125 z"
         style="fill:#ffffff;fill-opacity:1"
         inkscape:connector-curvature="0" />
      <path
         id="path12503"
         d="m 364.67973,505.99675 c -0.12329,-0.003 -0.20643,0.007 -0.27116,0.0313 -0.32501,0.12412 -0.33734,0.1411 -0.27117,1.6875 0.0329,0.76755 0.0601,1.68413 0.0678,2.03125 0.0152,0.69579 0.0555,0.80113 0.37286,1.09375 0.1352,0.12467 0.36578,0.21509 0.94908,0.40625 0.93257,0.30562 1.23064,0.33978 1.49141,0.125 l 0.16948,-0.15625 0,-0.65625 c 0,-0.36933 -0.0434,-1.36433 -0.0678,-2.21875 -0.0485,-1.70765 -0.0631,-1.7922 -0.37286,-1.96875 -0.21714,-0.12371 -0.6785,-0.24376 -1.5253,-0.34375 -0.27553,-0.0325 -0.41904,-0.0284 -0.54234,-0.0313 z m 0.71181,0.84375 c 0.15721,0.002 0.33146,0.0295 0.47454,0.0625 0.38278,0.0888 0.38802,0.0917 0.40675,2 l 0,1.65625 -0.13558,0 c -0.0725,0.006 -0.25521,-0.0115 -0.40675,-0.0625 -0.42342,-0.14215 -0.57538,-0.27992 -0.64402,-0.53125 -0.0618,-0.22637 -0.0589,-2.97481 0,-3.0625 0.021,-0.0313 0.14785,-0.0643 0.30506,-0.0625 z"
         style="fill:#ffffff;fill-opacity:1"
         inkscape:connector-curvature="0" />
      <path
         id="path12499"
         d="m 363.1976,510.06914 c 0,-0.0489 0.62972,-3.21944 0.70269,-3.53801 0.15996,-0.69831 0.16365,-0.69016 -0.33299,-0.73653 -0.31064,-0.029 -0.32114,-0.0264 -0.32114,0.0806 0,0.0609 -0.0214,0.18961 -0.0476,0.28616 -0.0448,0.16563 -0.085,0.36752 -0.36855,1.85041 -0.0638,0.33377 -0.11645,0.65599 -0.11697,0.71606 -10e-4,0.15369 -0.082,0.13625 -0.11218,-0.0243 -0.10023,-0.53291 -0.62066,-2.78314 -0.74,-3.19944 -0.0163,-0.0569 -0.69556,-0.23393 -0.73731,-0.19218 -0.0219,0.022 0.0549,0.38828 0.37291,1.77744 0.0826,0.36046 0.2039,0.91754 0.26974,1.23795 0.25824,1.25667 0.20969,1.13273 0.50932,1.30007 0.14641,0.0818 0.38643,0.22057 0.53341,0.30846 0.25547,0.15277 0.38857,0.19841 0.38857,0.13325 z"
         style="fill:#ffffff;fill-opacity:1"
         inkscape:connector-curvature="0" />
      <path
         id="path12497"
         d="m 361.09115,507.51983 c -0.0662,-0.27678 -0.16679,-0.69192 -0.22352,-0.92253 l -0.27949,-0.86392 -0.0513,-0.0354 c -1.55357,-0.57807 -2.61277,-1.28692 -3.03144,-2.39112 -0.0708,-0.18674 -0.28705,-0.62755 -0.30425,-0.97855 -0.0214,-0.43479 -0.0678,-0.46449 0.0248,-0.77505 0.12518,-0.4195 0.33328,-0.75655 0.55203,-1.05738 0.20846,-0.2867 0.84516,-0.92654 1.19724,-1.20315 0.15957,-0.12538 0.29014,-0.25751 0.29014,-0.29362 0,-0.0963 -0.0253,-0.0857 -0.32976,0.13746 -0.3872,0.28383 -1.1201,1.03185 -1.36645,1.39462 -0.26073,0.38395 -0.52133,0.95299 -0.61149,1.33525 -0.14369,0.60928 -0.0596,1.55124 0.20075,2.24776 0.39923,1.06821 1.11209,1.98937 2.13122,2.75396 0.29371,0.22036 0.69369,0.68061 0.69369,0.68061 0.98051,1.26204 1.34746,1.34261 1.10793,-0.029 z"
         style="fill:#ffffff;fill-opacity:1"
         inkscape:connector-curvature="0"
         sodipodi:nodetypes="cccccccccscscccccc" />
      <path
         id="path12495"
         d="m 363.10391,501.38577 c 0.37196,-0.17273 1.12848,-0.83777 1.07569,-0.94569 -0.0187,-0.038 -0.14206,-0.0942 -0.27433,-0.12443 -0.13228,-0.0303 -0.81535,-0.23531 -1.51803,-0.4556 -0.70272,-0.22026 -1.31586,-0.39038 -1.36255,-0.37806 -0.12522,0.0331 0.36504,0.88134 0.90677,1.56898 0.50721,0.64382 0.50682,0.64371 1.17245,0.33475 z"
         style="fill:#ffffff;fill-opacity:1"
         inkscape:connector-curvature="0" />
      <path
         id="path12493"
         d="m 366.87426,499.86301 c 0.28775,-0.15215 0.27033,-0.30266 -0.0743,-0.64222 -0.20713,-0.20405 -0.4933,-0.39186 -0.99991,-0.65623 -0.39035,-0.20372 -0.75014,-0.39208 -0.79953,-0.41858 -0.1254,-0.0673 -0.1947,-0.0601 -0.19408,0.0202 3.1e-4,0.0376 0.092,0.10903 0.20393,0.15885 0.29413,0.13068 0.83937,0.52372 0.95409,0.68768 0.22101,0.31584 -0.11232,0.46822 -0.9251,0.42292 -0.31243,-0.0174 -0.57312,-0.0371 -0.57932,-0.0437 -0.006,-0.006 0.0501,-0.18345 0.12543,-0.39309 0.11689,-0.32581 0.13703,-0.46861 0.139,-0.98328 0.002,-0.66731 -0.0974,-1.07147 -0.38954,-1.57677 -0.14193,-0.24542 -0.15668,-0.36645 -0.0446,-0.36645 0.0259,0 0.16998,-0.059 0.32014,-0.13104 0.15017,-0.0721 0.55226,-0.23509 0.89355,-0.36228 0.34129,-0.12715 0.66705,-0.2532 0.72393,-0.27996 0.10096,-0.0473 0.53173,-0.18821 1.42204,-0.46448 1.46032,-0.45315 4.4338,-1.09251 5.83046,-1.25369 0.29849,-0.0344 0.42802,-0.0979 0.35584,-0.17431 -0.0522,-0.0553 -2.23475,0.30432 -3.36807,0.55496 -2.62069,0.57959 -3.92335,0.97521 -5.90682,1.79386 l -0.52892,0.21832 -0.29835,-0.28149 c -0.16409,-0.15482 -0.35143,-0.29559 -0.41632,-0.31283 -0.0649,-0.0173 -0.27437,0.0196 -0.4655,0.0818 -0.19113,0.0623 -0.42896,0.12911 -0.5285,0.14857 -0.27277,0.0531 -0.38759,0.15443 -0.45818,0.40382 -0.0466,0.16456 -0.12309,0.26944 -0.28122,0.38553 -0.44305,0.32521 -0.49729,0.38602 -0.52859,0.59249 -0.0169,0.11152 -0.0404,0.25322 -0.052,0.31488 -0.0111,0.0617 -0.11678,0.16891 -0.2334,0.23833 -0.11665,0.0693 -0.22372,0.15805 -0.23782,0.19695 -0.0141,0.0389 0.0485,0.2099 0.13923,0.37999 0.0906,0.17006 0.15057,0.32436 0.13309,0.34287 -0.0431,0.0456 -0.32746,-0.0455 -1.26976,-0.40653 -1.22236,-0.46841 -2.16825,-0.98968 -2.36104,-1.30116 -0.10763,-0.17382 -0.0258,-0.33453 0.19672,-0.38625 0.23258,-0.0542 0.92553,-0.0412 1.43817,0.0269 0.23651,0.0314 0.4393,0.0472 0.45064,0.0352 0.063,-0.0666 -1.03038,-0.19675 -1.64018,-0.19514 -0.57152,0.001 -0.85752,0.0595 -0.99144,0.20137 -0.0928,0.0981 -0.0928,0.10631 1.5e-4,0.29126 0.0527,0.1046 0.23279,0.29393 0.40055,0.42059 0.45144,0.34082 1.77684,1.02393 2.42514,1.2499 0.79299,0.27642 1.54536,0.57278 1.57263,0.61946 0.0459,0.0785 0.72632,0.30569 1.57704,0.52633 1.10923,0.28769 1.43809,0.35053 1.52834,0.29207 0.0508,-0.033 0.27451,-0.0234 0.62231,0.0267 0.29863,0.043 0.8571,0.0815 1.24106,0.0856 0.57102,0.006 0.73104,-0.01 0.87908,-0.0883 z"
         style="fill:#ffffff;fill-opacity:1"
         inkscape:connector-curvature="0" />
      <path
         id="path12491"
         d="m 390.29969,497.81239 c 0,-0.0808 -0.62167,-0.71583 -0.91292,-0.93237 -0.43479,-0.32325 -0.44222,-0.30591 -0.0429,0.10003 0.21183,0.21526 0.38514,0.41553 0.38514,0.44502 0,0.0685 -0.23999,-0.009 -0.58021,-0.18598 l -0.2664,-0.13909 0.009,-0.42385 c 0.007,-0.31782 -0.0164,-0.46789 -0.0947,-0.60002 -0.0575,-0.0969 -0.1193,-0.15973 -0.13754,-0.13956 -0.0181,0.02 0.0122,0.0925 0.0685,0.1608 0.12954,0.15814 0.0758,0.31805 -0.10683,0.31805 -0.0777,0 -0.17678,0.0561 -0.22028,0.12471 -0.0656,0.10327 -0.10943,0.11522 -0.25572,0.0688 -0.22338,-0.0708 -0.24337,-0.0457 -0.17663,0.22138 0.0299,0.11951 0.0387,0.24532 0.0195,0.27954 -0.0191,0.0343 0.0141,0.0624 0.0738,0.0624 0.14619,0 0.30917,0.20833 0.26424,0.33774 -0.0544,0.15706 0.009,0.12639 0.26015,-0.12315 l 0.22719,-0.22686 0.63905,0.353 c 0.60581,0.33464 0.84687,0.41989 0.84687,0.29953 z"
         style="fill:#ffffff;fill-opacity:1"
         inkscape:connector-curvature="0" />
      <path
         id="path12489"
         d="m 387.82992,497.3519 c 0.0432,-0.11241 -0.0189,-0.31169 -0.0971,-0.31169 -0.0465,0 -0.0676,0.0606 -0.0676,0.19419 0,0.20033 0.10428,0.27477 0.16468,0.1175 z"
         style="fill:#000000"
         inkscape:connector-curvature="0" />
      <path
         id="path12487"
         d="m 387.74702,496.88547 c -0.0154,-0.0387 -0.0271,-0.0273 -0.0294,0.0293 -0.002,0.0512 0.009,0.0799 0.0256,0.0638 0.0161,-0.0161 0.0179,-0.0581 0.003,-0.093 z"
         style="fill:#000000"
         inkscape:connector-curvature="0" />
      <path
         id="path12483"
         d="m 375.6433,496.28314 c 0.46521,-0.14889 0.82504,-0.37822 1.14187,-0.72774 0.47738,-0.52667 0.69172,-1.02995 0.77017,-1.8085 l 0.0308,-0.30541 0.25145,0.003 c 0.26245,0.003 0.88264,0.0692 1.05616,0.11095 0.11357,0.0272 0.43166,0.0798 0.64618,0.10683 0.15361,0.0192 0.38285,0.0647 0.58597,0.1161 0.0692,0.0174 0.21625,0.045 0.3269,0.061 0.2149,0.0312 1.87725,0.4812 2.21285,0.59901 0.11069,0.0388 0.33697,0.11381 0.50293,0.16665 0.16597,0.0528 0.42773,0.14356 0.5817,0.20163 0.15398,0.0581 0.32485,0.10558 0.37971,0.10558 0.0549,0 0.12125,0.0228 0.14753,0.0503 0.0263,0.0277 0.127,0.0752 0.22381,0.10535 0.0969,0.0303 0.40233,0.1463 0.67893,0.25786 0.27661,0.11152 0.59345,0.23646 0.70408,0.27755 0.11069,0.0412 0.4275,0.17842 0.70411,0.30514 0.27661,0.12672 0.54261,0.24034 0.59112,0.25246 0.0485,0.0119 0.11068,0.0374 0.13822,0.0562 0.0275,0.0188 0.10038,-0.006 0.16188,-0.0525 0.0614,-0.0476 0.0819,-0.0865 0.0454,-0.0865 -0.0366,0 -0.13776,-0.0349 -0.22493,-0.0775 -0.0872,-0.0427 -0.29426,-0.13343 -0.46022,-0.20177 -0.16597,-0.0684 -0.42623,-0.18166 -0.57836,-0.25182 -0.28407,-0.13098 -0.67092,-0.28898 -0.80467,-0.32861 -0.0415,-0.0119 -0.19992,-0.0751 -0.35205,-0.13987 -0.42313,-0.17977 -1.11112,-0.44141 -1.3076,-0.49727 -0.0969,-0.0274 -0.40235,-0.12873 -0.67895,-0.22483 -0.77951,-0.27091 -1.66948,-0.54675 -2.05957,-0.63838 -0.19495,-0.0459 -0.54682,-0.13058 -0.78194,-0.18833 -0.56681,-0.13932 -0.99646,-0.21687 -1.87307,-0.33806 -0.25603,-0.0355 -0.56735,-0.0891 -0.69183,-0.11929 -0.22499,-0.0546 -0.22695,-0.0571 -0.33629,-0.43286 -0.18833,-0.64717 -0.54498,-1.14188 -0.96012,-1.33174 -0.12517,-0.0572 -0.19622,-0.0403 -0.5885,0.14111 -0.76443,0.35331 -1.26821,0.91687 -1.62949,1.82282 -0.18586,0.4661 -0.20721,0.56511 -0.20721,0.96064 0,0.52942 0.0394,0.66489 0.3861,1.32794 0.14723,0.28157 0.26769,0.54768 0.26769,0.59137 0,0.25308 0.43764,0.31022 0.99925,0.13045 z"
         style="fill:#ffffff;fill-opacity:1"
         inkscape:connector-curvature="0" />
    </g>
  </g>
</svg>
